<?xml version="1.0" encoding="UTF-8"?> <svg xmlns="http://www.w3.org/2000/svg" width="80" height="80" viewBox="0 0 80 80" fill="none"> <g clip-path="url(#clip0)"> <path d="M80 46.6669C80 44.7994 78.5434 43.2665 76.7067 43.1424V39.4872C76.7067 36.4735 74.2548 34.0216 71.2411 34.0216H29.6405V27.9076C29.6405 25.6902 31.4444 23.8861 33.6619 23.8861H63.5575C66.3497 23.8861 68.6214 21.6144 68.6214 18.8221C68.6214 16.0297 66.3497 13.7582 63.5575 13.7582H55.7872C55.1427 13.7582 54.6203 14.2805 54.6203 14.9251C54.6203 15.5696 55.1428 16.0919 55.7872 16.0919H63.5575C65.0628 16.0919 66.2875 17.3166 66.2875 18.8219C66.2875 20.3274 65.0628 21.5521 63.5575 21.5521H33.6619C30.1575 21.5521 27.3066 24.403 27.3066 27.9074V35.1883C27.3066 35.8329 27.8291 36.3552 28.4734 36.3552H71.2409C72.9678 36.3552 74.3727 37.7601 74.3727 39.4869V43.133H28.4736C27.8291 43.133 27.3067 43.6554 27.3067 44.2999C27.3067 44.9444 27.8292 45.4668 28.4736 45.4668H76.4666C77.128 45.4668 77.6661 46.0049 77.6661 46.6665C77.6661 47.3279 77.128 47.866 76.4666 47.866H3.53344C2.87188 47.866 2.33391 47.3279 2.33391 46.6665C2.33391 46.0049 2.87203 45.4668 3.53344 45.4668H23.8058C24.4502 45.4668 24.9727 44.9444 24.9727 44.2999C24.9727 43.6554 24.4502 43.133 23.8058 43.133H5.62719V39.4869C5.62719 37.7601 7.03203 36.3552 8.75891 36.3552H9.96469C10.475 36.3552 10.9263 36.0235 11.0784 35.5365L13.6159 27.419C14.6495 24.1126 16.6712 21.2802 19.4625 19.2283C22.2537 17.1765 25.5602 16.0919 29.0244 16.0919H51.1195C51.7641 16.0919 52.2864 15.5696 52.2864 14.9251C52.2864 14.2805 51.7639 13.7582 51.1195 13.7582H29.0242C25.0592 13.7582 21.2747 14.9996 18.0798 17.348C14.8852 19.6966 12.5711 22.9383 11.3883 26.7229L9.10672 34.0215H8.75891C5.74516 34.0215 3.29328 36.4733 3.29328 39.4871V43.1422C1.45656 43.2665 0 44.7994 0 46.6669C0 48.6154 1.585 50.2004 3.53344 50.2004H5.50766L3.30609 64.9019C3.20203 65.5969 3.75797 66.2416 4.46016 66.2416H54.5897C55.2342 66.2416 55.7566 65.7193 55.7566 65.0747C55.7566 64.4302 55.2341 63.9079 54.5897 63.9079H52.4148L52.0895 58.3515C52.0519 57.7082 51.4995 57.2146 50.8564 57.2547C50.2131 57.2924 49.722 57.8446 49.7597 58.4879L50.077 63.9079H41.1656V58.4196C41.1656 57.7751 40.6431 57.2527 39.9987 57.2527C39.3542 57.2527 38.8319 57.7751 38.8319 58.4196V63.9079H29.9205L30.2378 58.4879C30.2755 57.8446 29.7844 57.2924 29.1411 57.2547C28.4997 57.2191 27.9456 57.7082 27.908 58.3515L27.5827 63.9079H18.6794L19.3061 58.5554C19.3809 57.9152 18.923 57.3355 18.2828 57.2607C17.6428 57.1866 17.0631 57.6438 16.9881 58.284L16.3295 63.9079H5.81484L7.86766 50.2005H72.1297L74.1823 63.9079H63.6678L63.0092 58.284C62.9342 57.6438 62.355 57.1871 61.7145 57.2607C61.0744 57.3355 60.6163 57.9152 60.6913 58.5554L61.318 63.9079H59.2573C58.6128 63.9079 58.0905 64.4302 58.0905 65.0747C58.0905 65.7193 58.613 66.2416 59.2573 66.2416H75.5372C76.2394 66.2416 76.7953 65.5969 76.6913 64.9019L74.4897 50.2004H76.4666C78.4148 50.2005 80 48.6154 80 46.6669Z" fill="#71D6C9"></path> </g> <defs> <clipPath id="clip0"> <rect width="80" height="80" fill="white"></rect> </clipPath> </defs> </svg> 