<?xml version="1.0" encoding="UTF-8"?> <svg xmlns="http://www.w3.org/2000/svg" width="57" height="57" viewBox="0 0 57 57" fill="none"> <path d="M42.2751 38.95V29.45C42.27 24.7302 38.445 20.9051 33.7251 20.9H18.5251C13.8052 20.9051 9.9802 24.7302 9.9751 29.45V41.8H11.8751V29.45C11.8793 25.779 14.8541 22.8042 18.5251 22.8H20.0317L25.4534 28.2217C25.8245 28.5923 26.4257 28.5923 26.7968 28.2217L32.2185 22.8H33.7251C37.3961 22.8042 40.3709 25.779 40.3751 29.45V38.95H42.2751ZM26.1251 26.2067L22.7185 22.8H29.5317L26.1251 26.2067Z" fill="#F39292"></path> <path d="M16.625 31.35H18.525V39.9H16.625V31.35Z" fill="#F39292"></path> <path d="M33.7251 31.35H35.6251V38H33.7251V31.35Z" fill="#F39292"></path> <path d="M53.675 41.8H41.5597C39.4658 40.6538 37.1238 40.0373 34.7367 40.0044C34.6648 39.9979 34.5897 39.9951 34.5229 39.9951C32.0639 39.9951 29.6439 40.6116 27.4846 41.7884L20.425 41.8C18.3265 41.8 16.625 43.5015 16.625 45.6C16.6241 45.6752 16.6287 45.7503 16.6385 45.825C16.6524 46.0857 16.6942 46.3436 16.7619 46.5955L11.4065 44.1416L11.3203 44.0989L8.12143 42.6378C6.86667 42.0603 5.40363 42.1623 4.24071 42.9077C3.07734 43.6536 2.37411 44.9404 2.37504 46.3218V46.531C2.36808 48.0687 3.23923 49.4752 4.61877 50.1543L16.9024 56.3056C17.8269 56.7616 18.8432 56.9991 19.874 57H53.675C54.1997 57 54.625 56.5747 54.625 56.05V42.75C54.625 42.2254 54.1997 41.8 53.675 41.8ZM40.375 55.1H19.874C19.1355 55.0986 18.4067 54.9284 17.7443 54.6023L5.46625 48.45C4.7352 48.0905 4.27272 47.346 4.27504 46.531V46.3218C4.27504 45.588 4.64845 44.9047 5.26679 44.5085C5.88466 44.1124 6.66164 44.0586 7.32821 44.3652L10.5006 45.8139L10.586 45.8556L18.128 49.3137C18.2527 49.3708 18.3882 49.4 18.525 49.4H28.975V47.5H20.425C19.4101 47.5014 18.5751 46.7008 18.5338 45.6863C18.5325 45.6548 18.5297 45.6228 18.525 45.5917C18.5297 44.5457 19.379 43.7 20.425 43.7H27.7115C27.8743 43.7 28.0343 43.6583 28.1763 43.5785L28.404 43.45C30.2734 42.4346 32.3654 41.8974 34.4927 41.8863C34.5502 41.8979 34.6087 41.9039 34.6676 41.9044C36.6544 41.9234 38.6096 42.4082 40.375 43.3201V55.1ZM52.725 55.1H42.275V43.7H52.725V55.1Z" fill="#F39292"></path> <path d="M44.175 51.3H46.0751V53.2001H44.175V51.3Z" fill="#F39292"></path> <path d="M26.1249 19C30.3206 18.9954 33.7203 15.5952 33.7249 11.4V7.6C33.7249 3.40247 30.3224 0 26.1249 0C21.9274 0 18.5249 3.40247 18.5249 7.6V11.4C18.5295 15.5952 21.9297 18.9954 26.1249 19ZM20.4249 7.6C20.4249 4.4522 22.9771 1.9 26.1249 1.9C29.2732 1.9 31.8249 4.4522 31.8249 7.6V11.4C31.8249 14.5478 29.2732 17.1 26.1249 17.1C22.9771 17.1 20.4249 14.5478 20.4249 11.4V7.6Z" fill="#F39292"></path> <path d="M24.225 7.60002C24.2268 6.79521 24.7338 6.07808 25.4922 5.80811L24.8577 4.01758C23.3413 4.55659 22.3273 5.9904 22.325 7.60002V8.55002H24.225V7.60002Z" fill="#F39292"></path> </svg> 