<?xml version="1.0" encoding="UTF-8"?> <svg xmlns="http://www.w3.org/2000/svg" width="60" height="60" viewBox="0 0 60 60" fill="none"> <g clip-path="url(#clip0)"> <path d="M10.51 27.21C10.92 28.74 9.86 31.12 10.95 32.99C12.04 34.86 14.68 35.19 15.73 36.25C16.3934 37.1902 16.9597 38.1954 17.42 39.25L12.12 54.72C11.8701 55.5247 12.1514 56.3996 12.8232 56.908C13.4951 57.4164 14.4136 57.4492 15.12 56.99L18.44 54.64L19.61 58.53C19.857 59.3646 20.6155 59.9437 21.4858 59.9619C22.356 59.9802 23.1381 59.4335 23.42 58.61L28.6 43.7C29.4946 44.0801 30.5054 44.0801 31.4 43.7L36.54 58.65C36.8219 59.4735 37.604 60.0202 38.4742 60.0019C39.3445 59.9837 40.103 59.4046 40.35 58.57L41.52 54.68L44.84 57C45.5464 57.4592 46.4649 57.4264 47.1368 56.918C47.8086 56.4096 48.0899 55.5347 47.84 54.73L42.58 39.29C43.0421 38.2382 43.6047 37.2336 44.26 36.29C45.35 35.17 48 34.87 49.05 33C50.1 31.13 49.1 28.7 49.49 27.22C49.88 25.74 52 24.19 52 22C52 19.81 49.86 18.18 49.49 16.78C49.12 15.38 50.14 12.87 49.05 11C47.96 9.13 45.32 8.8 44.27 7.74C43.22 6.68 42.89 4 41 2.94C39.11 1.88 36.7 2.94 35.22 2.51C33.74 2.08 32.2 0 30 0C27.8 0 26.19 2.13 24.78 2.51C23.22 2.92 20.88 1.85 19 2.94C17.12 4.03 16.81 6.66 15.74 7.73C14.67 8.8 12 9.11 11 11C10 12.89 11 15.3 10.56 16.78C10.12 18.26 8 19.79 8 22C8 24.21 10.13 25.79 10.51 27.21ZM21.57 58L20.4 54.09C20.2024 53.4804 19.7246 53.0023 19.1151 52.8044C18.5055 52.6065 17.838 52.7127 17.32 53.09L14 55.41C19.36 39.8 18.9 41 19 41C20.84 42.07 23.3 41 24.78 41.43C25.5012 41.7396 26.1747 42.1504 26.78 42.65L21.57 58ZM42.68 53C42.1483 52.625 41.4674 52.5321 40.8546 52.7509C40.2419 52.9698 39.7739 53.473 39.6 54.1L38.43 58L33.17 42.69C33.7704 42.1861 34.445 41.7779 35.17 41.48C36.74 41.06 39.07 42.13 40.95 41.04C41.05 40.98 40.6 39.82 45.95 55.4L42.68 53ZM11.12 19.7C12.55 17.7 12.75 17.04 12.52 14.45C12.29 11.86 12.43 11.68 14.76 10.61C17.09 9.54 17.55 9.07 18.61 6.75C19.67 4.43 20 4.29 22.46 4.52C24.92 4.75 25.69 4.52 27.71 3.12C29.73 1.72 30.18 1.63 32.29 3.12C34.4 4.61 35 4.74 37.54 4.52C40.08 4.3 40.32 4.43 41.39 6.75C42.46 9.07 42.94 9.54 45.24 10.61C47.54 11.68 47.71 11.95 47.48 14.45C47.25 16.95 47.48 17.69 48.88 19.7C50.28 21.71 50.37 22.17 48.88 24.28C47.39 26.39 47.25 26.94 47.48 29.53C47.71 32.12 47.57 32.3 45.24 33.38C42.91 34.46 42.46 34.91 41.39 37.23C40.32 39.55 40.05 39.69 37.54 39.47C35.03 39.25 34.31 39.47 32.29 40.86C30.27 42.25 29.82 42.35 27.71 40.86C26.6677 39.9174 25.3153 39.3907 23.91 39.38C22.47 39.38 20.84 39.79 20 39.31C18.85 38.64 18.54 36.22 17.15 34.84C15.76 33.46 13.33 33.12 12.68 32C12.03 30.88 12.95 28.6 12.44 26.71C11.93 24.82 10 23.33 10 22C10.1515 21.1439 10.5394 20.3472 11.12 19.7Z" fill="#E2842C"></path> <path d="M30 37C38.2843 37 45 30.2843 45 22C45 13.7157 38.2843 7 30 7C21.7157 7 15 13.7157 15 22C15 30.2843 21.7157 37 30 37ZM30 9C37.1797 9 43 14.8203 43 22C43 29.1797 37.1797 35 30 35C22.8203 35 17 29.1797 17 22C17 18.5522 18.3696 15.2456 20.8076 12.8076C23.2456 10.3696 26.5522 9 30 9Z" fill="#E2842C"></path> <path d="M23.05 25.2301C23.5827 25.2034 24.0007 24.7634 24 24.2301C23.953 22.4577 24.6491 20.7464 25.92 19.5101C27.43 18.0101 29.21 17.6101 31.4 17.2401C32.9113 16.9802 34.3559 16.4228 35.65 15.6001C36.95 20.6001 34.58 26.8001 29.65 28.4401C28.4943 28.8205 27.2866 29.0195 26.07 29.0301C27.5213 26.3245 29.5739 23.9879 32.07 22.2001C32.2853 22.044 32.4295 21.8085 32.4708 21.5458C32.5121 21.2831 32.447 21.0147 32.29 20.8001C31.9654 20.358 31.3453 20.2598 30.9 20.5801C27.6592 22.8262 25.1239 25.9476 23.59 29.5801C23.4871 29.8693 23.5227 30.1898 23.6867 30.4493C23.8506 30.7089 24.1246 30.8788 24.43 30.9101C29.66 31.4701 34.36 29.3501 36.69 24.3101C38.2495 20.9453 38.4007 17.097 37.11 13.6201C36.9955 13.3354 36.7566 13.119 36.462 13.0331C36.1673 12.9472 35.8495 13.0014 35.6 13.1801C34.2705 14.2199 32.7096 14.9231 31.05 15.2301C28.6 15.6401 26.42 16.1401 24.49 18.0501C22.8292 19.6856 21.9266 21.9403 22 24.2701C22.0104 24.5372 22.1272 24.7891 22.3245 24.9694C22.5218 25.1498 22.783 25.2437 23.05 25.2301Z" fill="#E2842C"></path> </g> <defs> <clipPath id="clip0"> <rect width="60" height="60" fill="white"></rect> </clipPath> </defs> </svg> 