<?xml version="1.0" encoding="UTF-8"?> <svg xmlns="http://www.w3.org/2000/svg" width="59" height="59" viewBox="0 0 59 59" fill="none"> <path d="M27.2672 6.54362L16.0985 4.36452C15.6137 4.26955 15.1235 4.49326 14.8759 4.91999C14.7089 5.20808 10.7648 12.0807 9.04984 20.8709C8.65417 22.8993 8.47997 24.9127 8.52048 26.8271C8.53938 28.3265 8.71989 29.8358 9.05704 31.2965C9.15292 31.7106 9.26455 32.1216 9.39149 32.5272C10.3444 35.5696 11.9811 37.6484 14.0643 38.5072L11.6521 51.5084L6.45706 50.4947C5.14132 50.2382 3.78417 50.9701 3.28362 52.2147C3.19899 52.4258 3.14768 52.6441 3.10446 52.8665C3.06305 53.0772 3.01759 53.2869 3.00273 53.5016C2.95547 54.1818 3.16208 54.8628 3.57305 55.4062C3.99213 55.9603 4.60836 56.3429 5.28987 56.4761L17.962 58.9487C19.0608 59.163 20.2258 58.6746 20.856 57.7514C21.0207 57.5096 21.1467 57.2418 21.226 56.96C21.3232 56.6152 21.402 56.2416 21.4195 55.8837C21.4519 55.2256 21.2435 54.5644 20.847 54.0391C20.4297 53.4868 19.8085 53.1006 19.1288 52.9678L13.923 51.9518L16.3362 38.947C18.4635 38.9276 20.63 37.751 22.5701 35.5435C22.729 35.3635 22.8807 35.1785 23.0306 34.9908C24.4548 33.2141 25.6467 30.976 26.5218 28.4661C26.9733 27.1688 27.3307 25.8373 27.5936 24.4891C29.309 15.6994 28.2377 7.84811 28.1913 7.51816C28.1225 7.02977 27.7516 6.63815 27.2672 6.54362ZM19.0194 55.4597C19.1076 55.5907 19.1135 55.7487 19.0914 55.9004C19.0712 56.0399 19.046 56.1957 18.9947 56.3276C18.901 56.5706 18.6688 56.7291 18.405 56.6778L5.73325 54.2052C5.58065 54.1755 5.44696 54.0756 5.37314 53.9392C5.27231 53.7537 5.32723 53.5611 5.36414 53.3666C5.39745 53.1919 5.42266 53.0195 5.5613 52.894C5.68238 52.7841 5.85298 52.7346 6.01368 52.7661L18.6859 55.2387C18.8704 55.2747 18.9739 55.3926 19.0194 55.4597ZM16.4879 6.79795L25.9924 8.6525C26.2126 10.8528 26.6546 17.2199 25.3231 24.0462C25.2169 24.5904 25.0935 25.1256 24.958 25.6518H10.8346C10.8724 24.2456 11.0336 22.7867 11.3208 21.3139C12.6505 14.5011 15.457 8.75603 16.4879 6.79795ZM23.2561 30.3035C22.6668 31.5049 21.961 32.6568 21.1089 33.6908C19.8666 35.1996 18.5558 36.1539 17.2936 36.4933C16.6576 36.6621 15.9891 36.6833 15.3526 36.5068C14.2795 36.2079 13.3423 35.3779 12.6032 34.145C11.7488 32.7099 11.2956 31.0471 11.0507 29.4059C10.9791 28.9284 10.9269 28.4472 10.8904 27.9655H24.2446C23.9574 28.7618 23.6301 29.5441 23.2561 30.3035Z" fill="#2BB0A8"></path> <path d="M23.2941 20.0819C23.3301 20.085 23.3656 20.0868 23.4007 20.0868C23.9922 20.0868 24.4968 19.6354 24.5517 19.0349C24.7687 16.6555 24.8295 14.1964 24.7318 11.7261C24.7061 11.0873 24.1736 10.5899 23.5299 10.6156C22.8912 10.6408 22.3942 11.1787 22.4194 11.8174C22.5135 14.1874 22.4555 16.5447 22.247 18.8247C22.189 19.4612 22.658 20.0238 23.2941 20.0819Z" fill="#2BB0A8"></path> <path d="M55.9512 53.1487C55.8688 52.7251 55.7779 52.2966 55.5727 51.9126C55.3971 51.5836 55.1459 51.2933 54.8542 51.0614C54.2069 50.5465 53.3566 50.3363 52.5437 50.4952L47.3428 51.5098L44.805 38.5027C49.2649 36.649 51.4481 29.2614 49.8109 20.8709C48.0959 12.0807 44.1514 5.20805 43.9848 4.91996C43.7373 4.49324 43.2462 4.26997 42.7623 4.3645L31.5931 6.5436C31.1092 6.63813 30.7378 7.02974 30.669 7.51814C30.6226 7.84809 29.5517 15.6993 31.2667 24.4891C32.9039 32.8796 37.7046 38.9047 42.5341 38.9461L45.0719 51.9531L39.8715 52.9678C38.7885 53.1789 37.8995 54.0463 37.6492 55.1189C37.5011 55.7559 37.5992 56.4378 37.8009 57.0523C37.9972 57.6505 38.3973 58.1758 38.9213 58.5242C39.5384 58.9347 40.3104 59.0905 41.0383 58.9487L53.7104 56.4761C55.2269 56.1799 56.2479 54.6675 55.9512 53.1487ZM32.8688 8.65248L42.3729 6.79792C43.4042 8.75691 46.2108 14.5015 47.54 21.3139C47.599 21.6159 47.6516 21.917 47.6998 22.2173H33.2203C32.2868 16.118 32.6694 10.6569 32.8688 8.65248ZM53.6006 53.9842C53.5556 54.0512 53.4525 54.1687 53.2675 54.2047L40.5958 56.6778C40.436 56.7088 40.264 56.6598 40.1438 56.5504C40.0066 56.4266 39.9786 56.2483 39.9458 56.0759C39.9116 55.8995 39.8621 55.7127 39.9381 55.5398C40.0057 55.3863 40.1501 55.2706 40.3149 55.2387L52.9866 52.7656C53.2468 52.7148 53.4822 52.8777 53.5763 53.1158C53.6731 53.3598 53.7582 53.7501 53.6006 53.9842ZM42.3603 36.627C41.3624 36.5671 40.4288 36.1102 39.6343 35.5259C38.8398 34.9417 38.1543 34.2179 37.5479 33.4427C37.1806 32.9728 36.843 32.4799 36.5302 31.9721C35.9355 31.0079 35.3909 29.9227 34.9173 28.7447C34.3677 27.3817 33.9464 25.9673 33.6376 24.531H47.9663C48.1139 26.6362 48.0212 28.7897 47.5324 30.8486C47.3928 31.436 47.2186 32.0158 47.003 32.5798C46.191 34.7027 44.972 36.0792 43.5469 36.496C43.1624 36.6072 42.7605 36.6504 42.3603 36.627Z" fill="#2BB0A8"></path> <path d="M30.415 1.15684C30.415 0.518105 29.8969 0 29.2582 0C28.619 0 28.1013 0.518105 28.1013 1.15684V4.91592C28.1013 5.55466 28.619 6.07276 29.2582 6.07276C29.8969 6.07276 30.415 5.55466 30.415 4.91592V1.15684Z" fill="#2BB0A8"></path> <path d="M24.5666 4.37805C24.7844 4.73681 25.1657 4.93487 25.5569 4.93487C25.7612 4.93487 25.9687 4.8804 26.156 4.76652C26.702 4.43477 26.8762 3.72311 26.5445 3.17709L25.1184 0.829192C24.7867 0.28363 24.0755 0.109428 23.529 0.441177C22.983 0.772926 22.8092 1.48459 23.141 2.0306L24.5666 4.37805Z" fill="#2BB0A8"></path> <path d="M32.5902 4.7665C32.7775 4.88038 32.985 4.93485 33.1894 4.93485C33.5805 4.93485 33.9618 4.73679 34.1797 4.37803L35.6052 2.03058C35.937 1.48457 35.7632 0.772908 35.2172 0.441159C34.6708 0.10941 33.9596 0.283162 33.6278 0.829175L32.2022 3.17707C31.87 3.72309 32.0442 4.43475 32.5902 4.7665Z" fill="#2BB0A8"></path> <path d="M41.5682 14.4062C42.0084 15.6125 42.4063 16.8351 42.7547 18.0711C42.8925 18.56 42.9681 19.0745 43.4394 19.3581C43.854 19.607 44.3964 19.5678 44.77 19.2604C45.1206 18.9723 45.2638 18.5046 45.153 18.0675C45.0014 17.4675 44.8213 16.8729 44.639 16.281C44.4508 15.6683 44.251 15.0589 44.0408 14.4534C43.9368 14.1536 43.8427 13.8444 43.7176 13.5527C43.6325 13.3533 43.4907 13.1804 43.3124 13.0576C42.9051 12.7767 42.3487 12.7888 41.9539 13.0882C41.5551 13.392 41.3958 13.9353 41.5682 14.4062Z" fill="#2BB0A8"></path> <path d="M23.9103 23.5124C23.9103 24.1538 23.3899 24.6742 22.7485 24.6742C22.1066 24.6742 21.5867 24.1538 21.5867 23.5124C21.5867 22.8705 22.1066 22.3506 22.7485 22.3506C23.3899 22.3506 23.9103 22.8705 23.9103 23.5124Z" fill="#2BB0A8"></path> <path d="M42.0736 9.74493C42.0736 10.3864 41.5532 10.9067 40.9118 10.9067C40.2704 10.9067 39.75 10.3864 39.75 9.74493C39.75 9.10304 40.2704 8.58313 40.9118 8.58313C41.5532 8.58313 42.0736 9.10304 42.0736 9.74493Z" fill="#2BB0A8"></path> </svg> 