<?xml version="1.0" encoding="UTF-8"?> <svg xmlns="http://www.w3.org/2000/svg" width="59" height="59" viewBox="0 0 59 59" fill="none"> <g clip-path="url(#clip0)"> <path d="M58.8247 33.0342C58.6783 32.7415 58.3125 32.5952 58.0199 32.522C56.3371 32.522 41.8504 31.9367 41.8504 15.1087C41.8504 14.5966 41.4114 14.1576 40.8992 14.1576C40.3871 14.1576 39.9481 14.5966 39.9481 15.1087C39.9481 31.9367 25.4614 32.522 23.8517 32.522C23.6322 32.522 23.4128 32.5952 23.2664 32.7415C23.1201 32.8147 23.0469 32.961 22.9738 33.0342C22.8274 33.3269 22.8274 33.6927 22.9738 33.9853C23.1201 34.278 23.4859 34.4975 23.8517 34.4975C23.8517 34.4975 23.8517 34.4975 23.9249 34.4975C25.6077 34.4975 40.0212 35.0828 40.0212 51.9108C40.0212 52.423 40.4602 52.8619 40.9724 52.8619C41.4845 52.8619 41.9235 52.423 41.9235 51.9108C41.9235 35.156 56.3371 34.4975 58.0199 34.4975C58.3857 34.4975 58.6783 34.278 58.8978 33.9853C59.0442 33.6927 59.0442 33.3269 58.8247 33.0342ZM40.8992 44.7406C38.7774 37.7899 33.5827 34.7902 29.4855 33.4732C33.5827 32.1562 38.7774 29.1564 40.8992 22.2058C43.021 29.1564 48.2157 32.1562 52.313 33.4732C48.2157 34.7902 43.021 37.7899 40.8992 44.7406Z" fill="#FFDE33"></path> <path d="M28.8271 14.0113C29.3393 14.0113 29.7783 13.5723 29.7783 12.987C29.7783 12.4748 29.3393 12.0359 28.8271 12.0359C27.9491 12.0359 20.0473 11.7432 20.0473 2.52439C20.0473 2.01223 19.6083 1.57324 19.0962 1.57324C18.584 1.57324 18.145 2.01223 18.145 2.52439C18.145 11.7432 10.2432 12.0359 9.36521 12.0359C9.29204 12.0359 9.29204 12.0359 9.29204 12.0359C8.77989 12.109 8.41406 12.4748 8.41406 12.987C8.41406 13.4992 8.85305 13.9381 9.36521 13.9381C10.3164 13.9381 18.145 14.2308 18.145 23.4496C18.145 23.9618 18.584 24.4008 19.0962 24.4008C19.5352 24.4739 19.9741 24.0349 19.9741 23.5228C19.9741 14.304 27.876 14.0113 28.754 14.0113H28.8271ZM19.023 18.1817C17.8524 15.4015 15.7306 13.865 13.7551 12.987C15.8769 12.109 17.8524 10.4262 19.023 7.79228C20.1936 10.5726 22.3154 12.109 24.2909 12.987C22.1691 13.865 20.1936 15.5478 19.023 18.1817Z" fill="#FFDE33"></path> <path d="M20.4131 45.0333C19.5351 45.0333 11.6333 44.7406 11.6333 35.5218C11.6333 35.0097 11.1943 34.5707 10.6821 34.5707C10.17 34.5707 9.73096 35.0097 9.73096 35.5218C9.73096 44.7406 1.82913 45.0333 0.951147 45.0333C0.877982 45.0333 0.877982 45.0333 0.877982 45.0333C0.365826 45.1065 0 45.4723 0 45.9844C0 46.4966 0.438991 46.9356 0.951147 46.9356C1.90229 46.9356 9.73096 47.2282 9.73096 56.447C9.73096 56.9592 10.17 57.3982 10.6821 57.3982C11.1211 57.5445 11.5601 57.1055 11.5601 56.5202C11.5601 47.3014 19.4619 47.0087 20.3399 47.0087H20.4131C20.9252 47.0087 21.3642 46.5698 21.3642 45.9844C21.3642 45.4723 20.9252 45.0333 20.4131 45.0333ZM10.6089 51.2523C9.36514 48.472 7.31651 46.9356 5.34106 46.0576C7.46285 45.1796 9.4383 43.4968 10.6089 40.8629C11.7796 43.6432 13.9014 45.1796 15.8768 46.0576C13.755 46.9356 11.7796 48.6184 10.6089 51.2523Z" fill="#FFDE33"></path> </g> <defs> <clipPath id="clip0"> <rect width="59" height="59" fill="white"></rect> </clipPath> </defs> </svg> 