<?xml version="1.0" encoding="UTF-8"?> <svg xmlns="http://www.w3.org/2000/svg" width="55" height="55" viewBox="0 0 55 55" fill="none"> <path d="M27.5 0C12.3368 0 0 12.3368 0 27.5C0 42.6632 12.3368 55 27.5 55C42.6632 55 55 42.6632 55 27.5C55 12.3368 42.6632 0 27.5 0ZM28.6459 52.6503V49.2708C28.6459 48.6374 28.1334 48.1249 27.5 48.1249C26.8666 48.1249 26.3541 48.6374 26.3541 49.2708V52.6503C13.3703 52.0623 2.93756 41.6297 2.34964 28.6458H5.72913C6.36249 28.6459 6.875 28.1334 6.875 27.5C6.875 26.8666 6.36249 26.3541 5.72913 26.3541H2.34964C2.93756 13.3703 13.3702 2.93756 26.3541 2.34964V5.72913C26.3541 6.36249 26.8666 6.875 27.5 6.875C28.1334 6.875 28.6459 6.36249 28.6459 5.72913V2.34964C41.6297 2.93756 52.0624 13.3702 52.6504 26.3541H49.2709C48.6375 26.3541 48.125 26.8666 48.125 27.5C48.125 28.1334 48.6375 28.6459 49.2709 28.6459H52.6504C52.0624 41.6297 41.6297 52.0624 28.6459 52.6503Z" fill="#6B34C6"></path> <path d="M29.6785 28.0582C29.7259 27.8748 29.7915 27.6978 29.7915 27.4998C29.7915 27.0202 29.6091 26.5994 29.3561 26.2311L36.5591 10.7969C36.8266 10.224 36.5793 9.54135 36.0052 9.27398C35.4334 9.01091 34.7508 9.25604 34.4823 9.82785L27.2845 25.2518C26.1269 25.366 25.2083 26.3129 25.2083 27.4998C25.2083 28.7631 26.2366 29.7915 27.4999 29.7915C27.6978 29.7915 27.8749 29.7258 28.0583 29.6784L37.0022 38.6224C37.226 38.8462 37.5192 38.9581 37.8124 38.9581C38.1055 38.9581 38.3987 38.8462 38.6225 38.6224C39.0702 38.1748 39.0702 37.4497 38.6225 37.0022L29.6785 28.0582Z" fill="#6B34C6"></path> </svg> 