<?xml version="1.0" encoding="UTF-8"?> <svg xmlns="http://www.w3.org/2000/svg" width="57" height="57" viewBox="0 0 57 57" fill="none"> <path d="M25.5132 37.9049C26.0044 37.9049 26.4026 37.5067 26.4026 37.0155C26.4026 36.5243 26.0044 36.1261 25.5132 36.1261C25.022 36.1261 24.6238 36.5243 24.6238 37.0155C24.6238 37.5067 25.022 37.9049 25.5132 37.9049Z" fill="#1E50FF"></path> <path d="M28.4575 31.6007C28.9487 31.6007 29.3469 31.2025 29.3469 30.7113C29.3469 30.2201 28.9487 29.8219 28.4575 29.8219C27.9663 29.8219 27.5681 30.2201 27.5681 30.7113C27.5681 31.2025 27.9663 31.6007 28.4575 31.6007Z" fill="#1E50FF"></path> <path d="M29.5605 16.4106C29.0667 16.4106 28.6667 16.8106 28.6667 17.3044V18.2045C28.6667 18.6982 29.0667 19.0982 29.5605 19.0982C30.0542 19.0982 30.4542 18.6982 30.4542 18.2045V17.3044C30.4542 16.8106 30.0542 16.4106 29.5605 16.4106Z" fill="#1E50FF"></path> <path d="M57 16.924C57 9.4834 50.9465 3.42993 43.5059 3.42993C38.8426 3.42993 34.5923 5.78987 32.1254 9.66865C29.988 7.41348 26.9806 6.09891 23.8476 6.09891C17.569 6.09891 12.4611 11.2069 12.4611 17.4856C12.4611 19.3291 12.8991 21.112 13.7344 22.7201C13.2999 23.6162 13.056 24.621 13.056 25.6819C13.056 26.1756 13.4561 26.5756 13.9497 26.5756C14.4433 26.5756 14.8435 26.1756 14.8435 25.6819C14.8435 25.3382 14.8784 25.0025 14.9445 24.678C16.2138 26.903 15.7074 28.9163 15.0136 30.2575C14.9351 30.4092 14.8493 30.5587 14.7597 30.7071H9.08504C8.59141 30.7071 8.1913 31.1071 8.1913 31.6008C8.1913 32.0946 8.59141 32.4946 9.08504 32.4946H13.3381C12.1139 33.7104 10.5401 34.6817 8.90503 35.2326H0.893742C0.400113 35.2326 0 35.6326 0 36.1263C0 36.6201 0.400113 37.0201 0.893742 37.0201H2.95732C2.17691 37.8064 1.69397 38.8885 1.69397 40.0813C1.69397 42.4789 3.64466 44.4295 6.04222 44.4295C10.5842 44.4295 14.1905 45.0557 17.8465 45.7876C17.7374 45.9359 17.672 46.1183 17.672 46.3165C17.672 50.316 20.9259 53.57 24.9255 53.57C28.3616 53.57 31.2451 51.1677 31.99 47.9548C33.4872 48.0494 35.088 48.1035 36.8233 48.1035C44.9555 48.1035 51.5716 41.4873 51.5716 33.3552C51.5716 31.6285 51.2781 29.946 50.698 28.3431C54.6046 25.8794 57 21.5737 57 16.924ZM24.9256 51.7825C21.9116 51.7825 19.4596 49.3305 19.4596 46.3165C19.4596 46.2451 19.4504 46.1758 19.4344 46.1092C19.9517 46.2146 20.4711 46.3202 20.9955 46.4247C21.049 46.8672 21.4252 47.2103 21.8821 47.2103C22.2188 47.2103 22.5117 47.024 22.6641 46.749C23.9699 46.9947 25.3233 47.2265 26.7633 47.4268C26.3861 48.0486 25.7047 48.4664 24.9258 48.4664C24.4322 48.4664 24.0321 48.8664 24.0321 49.3601C24.0321 49.8539 24.4322 50.2539 24.9258 50.2539C26.6248 50.2539 28.0757 49.1721 28.6265 47.6614C29.1322 47.7182 29.6504 47.77 30.1806 47.8174C29.5263 50.1035 27.4191 51.7825 24.9256 51.7825ZM23.2059 45.0316C23.5983 44.5078 24.222 44.1666 24.9255 44.1666C25.878 44.1666 26.6866 44.7898 26.968 45.6495C25.6516 45.4655 24.4077 45.255 23.2059 45.0316ZM49.1564 27.1784C48.7558 27.3997 48.5872 27.8876 48.7654 28.309C49.4414 29.9069 49.7842 31.6047 49.7842 33.3552C49.7842 40.5018 43.9699 46.316 36.8233 46.316C35.1583 46.316 33.6182 46.2648 32.1754 46.1749C32.0993 42.2406 28.8776 39.063 24.9255 39.063H7.98501C7.49138 39.063 7.09127 39.463 7.09127 39.9567C7.09127 40.4504 7.49138 40.8504 7.98501 40.8504H24.9256C27.8467 40.8504 30.2399 43.1538 30.3846 46.0399C29.8572 45.993 29.3418 45.9416 28.8389 45.8853C28.6234 43.9163 26.951 42.3791 24.9257 42.3791C23.3413 42.3791 21.9734 43.3203 21.3494 44.6726C20.783 44.5596 20.2223 44.4456 19.6641 44.3318C15.3975 43.4628 11.3674 42.6419 6.04245 42.6419C4.63036 42.6419 3.48156 41.493 3.48156 40.0811C3.48156 38.6688 4.63047 37.5201 6.04245 37.5201C7.04785 37.5201 8.10569 37.3471 9.16164 37.02H18.1002C18.5938 37.02 18.9939 36.62 18.9939 36.1262C18.9939 35.6325 18.5938 35.2325 18.1002 35.2325H12.8145C13.9526 34.4466 14.9362 33.5114 15.7029 32.4945H19.8687C23.6253 32.4945 26.6815 29.4384 26.6815 25.6818C26.6815 21.9251 23.6253 18.869 19.8687 18.869C17.9193 18.869 16.1596 19.6934 14.9166 21.0104C14.477 19.898 14.2484 18.7077 14.2484 17.4854C14.2484 12.1925 18.5545 7.88617 23.8476 7.88617C26.9101 7.88617 29.7177 9.29681 31.5504 11.7564C31.7351 12.0041 32.035 12.1392 32.3428 12.1129C32.651 12.0866 32.9235 11.903 33.0637 11.6274C35.0735 7.67354 39.0747 5.21742 43.506 5.21742C49.9612 5.21742 55.2126 10.469 55.2126 16.924C55.2125 21.1861 52.892 25.1152 49.1564 27.1784ZM19.8686 27.6093C18.8057 27.6093 17.941 26.7445 17.941 25.6818C17.941 24.6188 18.8057 23.754 19.8686 23.754C20.9315 23.754 21.7962 24.6188 21.7962 25.6818C21.7962 26.1755 22.1963 26.5755 22.6899 26.5755C23.1834 26.5755 23.5836 26.1755 23.5836 25.6818C23.5836 23.6332 21.9171 21.9666 19.8686 21.9666C18.4455 21.9666 17.2075 22.7712 16.5838 23.949C16.4177 23.6424 16.23 23.3397 16.0194 23.0425C15.9461 22.9393 15.8749 22.8348 15.8058 22.7292C16.7204 21.4743 18.2004 20.6565 19.8686 20.6565C22.6396 20.6565 24.8939 22.9108 24.8939 25.6818C24.8939 28.4527 22.6395 30.707 19.8686 30.707H16.7815C17.1183 29.9753 17.3388 29.2335 17.4424 28.4915C18.0939 29.0548 18.9419 29.3968 19.8687 29.3968C20.3624 29.3968 20.7625 28.9968 20.7625 28.503C20.7624 28.0095 20.3622 27.6093 19.8686 27.6093Z" fill="#1E50FF"></path> <path d="M41.3101 9.73278C41.8013 9.73278 42.1995 9.33458 42.1995 8.84338C42.1995 8.35218 41.8013 7.95398 41.3101 7.95398C40.8189 7.95398 40.4207 8.35218 40.4207 8.84338C40.4207 9.33458 40.8189 9.73278 41.3101 9.73278Z" fill="#1E50FF"></path> <path d="M19.6353 15.4008C20.1265 15.4008 20.5247 15.0026 20.5247 14.5114C20.5247 14.0201 20.1265 13.6219 19.6353 13.6219C19.144 13.6219 18.7458 14.0201 18.7458 14.5114C18.7458 15.0026 19.144 15.4008 19.6353 15.4008Z" fill="#1E50FF"></path> <path d="M38.4578 41.7353C38.949 41.7353 39.3472 41.3372 39.3472 40.8459C39.3472 40.3547 38.949 39.9565 38.4578 39.9565C37.9666 39.9565 37.5684 40.3547 37.5684 40.8459C37.5684 41.3372 37.9666 41.7353 38.4578 41.7353Z" fill="#1E50FF"></path> <path d="M46.0171 38.2075C46.5083 38.2075 46.9065 37.8093 46.9065 37.3181C46.9065 36.8269 46.5083 36.4287 46.0171 36.4287C45.5259 36.4287 45.1277 36.8269 45.1277 37.3181C45.1277 37.8093 45.5259 38.2075 46.0171 38.2075Z" fill="#1E50FF"></path> <path d="M43.5852 20.4768C43.0914 20.4768 42.6914 20.8768 42.6914 21.3705C42.6914 22.0461 42.1418 22.5957 41.4662 22.5957C40.7906 22.5957 40.241 22.0461 40.241 21.3705C40.241 20.8768 39.841 20.4768 39.3472 20.4768C38.8535 20.4768 38.4535 20.8768 38.4535 21.3705C38.4535 22.0461 37.9039 22.5957 37.2282 22.5957C36.5527 22.5957 36.0031 22.0461 36.0031 21.3705C36.0031 20.8768 35.6031 20.4768 35.1093 20.4768C34.6156 20.4768 34.2156 20.8768 34.2156 21.3705C34.2156 22.1975 34.5507 22.9475 35.092 23.4925V24.1885C35.092 26.5349 37.0007 28.4437 39.3471 28.4437C41.6935 28.4437 43.6023 26.5349 43.6023 24.1885V23.4924C44.1437 22.9474 44.4787 22.1974 44.4787 21.3704C44.4789 20.8768 44.0788 20.4768 43.5852 20.4768ZM39.3474 26.6563C38.0456 26.6563 36.9789 25.6425 36.8885 24.3635C37.0001 24.3761 37.1134 24.3832 37.2283 24.3832C38.0536 24.3832 38.8026 24.0495 39.3474 23.5101C39.892 24.0495 40.6409 24.3832 41.4662 24.3832C41.5812 24.3832 41.6945 24.3761 41.8062 24.3635C41.7159 25.6425 40.649 26.6563 39.3474 26.6563Z" fill="#1E50FF"></path> <path d="M49.1345 16.4106C48.6408 16.4106 48.2407 16.8106 48.2407 17.3044V18.2045C48.2407 18.6982 48.6408 19.0982 49.1345 19.0982C49.6282 19.0982 50.0282 18.6982 50.0282 18.2045V17.3044C50.0282 16.8106 49.6281 16.4106 49.1345 16.4106Z" fill="#1E50FF"></path> <path d="M52.4604 15.4008C52.9516 15.4008 53.3498 15.0026 53.3498 14.5114C53.3498 14.0201 52.9516 13.6219 52.4604 13.6219C51.9692 13.6219 51.571 14.0201 51.571 14.5114C51.571 15.0026 51.9692 15.4008 52.4604 15.4008Z" fill="#1E50FF"></path> <path d="M38.4578 14.8218C38.949 14.8218 39.3472 14.4236 39.3472 13.9324C39.3472 13.4412 38.949 13.043 38.4578 13.043C37.9666 13.043 37.5684 13.4412 37.5684 13.9324C37.5684 14.4236 37.9666 14.8218 38.4578 14.8218Z" fill="#1E50FF"></path> <path d="M35.7095 33.9176C36.2007 33.9176 36.5989 33.5194 36.5989 33.0282C36.5989 32.537 36.2007 32.1388 35.7095 32.1388C35.2183 32.1388 34.8201 32.537 34.8201 33.0282C34.8201 33.5194 35.2183 33.9176 35.7095 33.9176Z" fill="#1E50FF"></path> </svg> 