<?xml version="1.0" encoding="UTF-8"?> <svg xmlns="http://www.w3.org/2000/svg" width="50" height="50" viewBox="0 0 50 50" fill="none"> <path d="M4.6875 5.46875C5.11897 5.46875 5.46875 5.11897 5.46875 4.6875C5.46875 4.25603 5.11897 3.90625 4.6875 3.90625C4.25603 3.90625 3.90625 4.25603 3.90625 4.6875C3.90625 5.11897 4.25603 5.46875 4.6875 5.46875Z" fill="#CE8D52"></path> <path d="M10.1562 5.46875C10.5877 5.46875 10.9375 5.11897 10.9375 4.6875C10.9375 4.25603 10.5877 3.90625 10.1562 3.90625C9.72478 3.90625 9.375 4.25603 9.375 4.6875C9.375 5.11897 9.72478 5.46875 10.1562 5.46875Z" fill="#CE8D52"></path> <path d="M16.4062 5.46875C16.8377 5.46875 17.1875 5.11897 17.1875 4.6875C17.1875 4.25603 16.8377 3.90625 16.4062 3.90625C15.9748 3.90625 15.625 4.25603 15.625 4.6875C15.625 5.11897 15.9748 5.46875 16.4062 5.46875Z" fill="#CE8D52"></path> <path d="M21.875 5.46875C22.3065 5.46875 22.6562 5.11897 22.6562 4.6875C22.6562 4.25603 22.3065 3.90625 21.875 3.90625C21.4435 3.90625 21.0938 4.25603 21.0938 4.6875C21.0938 5.11897 21.4435 5.46875 21.875 5.46875Z" fill="#CE8D52"></path> <path d="M48.4375 0.78125H1.5625C1.3553 0.78125 1.15659 0.86356 1.01007 1.01007C0.86356 1.15659 0.78125 1.3553 0.78125 1.5625V48.4375C0.78125 48.6447 0.86356 48.8434 1.01007 48.9899C1.15659 49.1364 1.3553 49.2188 1.5625 49.2188H48.4375C48.6447 49.2188 48.8434 49.1364 48.9899 48.9899C49.1364 48.8434 49.2188 48.6447 49.2188 48.4375V1.5625C49.2188 1.3553 49.1364 1.15659 48.9899 1.01007C48.8434 0.86356 48.6447 0.78125 48.4375 0.78125ZM25.7812 24.2188V14.0625H47.6562V24.2188H25.7812ZM24.2188 35.9375H2.34375V25.7812H24.2188V35.9375ZM47.6562 12.5H25.7812V2.34375H47.6562V12.5ZM24.2188 2.34375V24.2188H14.0625V2.34375H24.2188ZM2.34375 2.34375H12.5V24.2188H2.34375V2.34375ZM2.34375 37.5H24.2188V47.6562H2.34375V37.5ZM25.7812 47.6562V25.7812H35.9375V47.6562H25.7812ZM47.6562 47.6562H37.5V25.7812H47.6562V47.6562Z" fill="#CE8D52"></path> <path d="M45.3125 5.46875C45.744 5.46875 46.0938 5.11897 46.0938 4.6875C46.0938 4.25603 45.744 3.90625 45.3125 3.90625C44.881 3.90625 44.5312 4.25603 44.5312 4.6875C44.5312 5.11897 44.881 5.46875 45.3125 5.46875Z" fill="#CE8D52"></path> <path d="M45.3125 10.9375C45.744 10.9375 46.0938 10.5877 46.0938 10.1562C46.0938 9.72478 45.744 9.375 45.3125 9.375C44.881 9.375 44.5312 9.72478 44.5312 10.1562C44.5312 10.5877 44.881 10.9375 45.3125 10.9375Z" fill="#CE8D52"></path> <path d="M45.3125 17.1875C45.744 17.1875 46.0938 16.8377 46.0938 16.4062C46.0938 15.9748 45.744 15.625 45.3125 15.625C44.881 15.625 44.5312 15.9748 44.5312 16.4062C44.5312 16.8377 44.881 17.1875 45.3125 17.1875Z" fill="#CE8D52"></path> <path d="M45.3125 22.6562C45.744 22.6562 46.0938 22.3065 46.0938 21.875C46.0938 21.4435 45.744 21.0938 45.3125 21.0938C44.881 21.0938 44.5312 21.4435 44.5312 21.875C44.5312 22.3065 44.881 22.6562 45.3125 22.6562Z" fill="#CE8D52"></path> <path d="M21.875 21.0938C22.0822 21.0938 22.2809 21.0114 22.4274 20.8649C22.5739 20.7184 22.6562 20.5197 22.6562 20.3125V10.9375C22.6562 10.7303 22.5739 10.5316 22.4274 10.3851C22.2809 10.2386 22.0822 10.1562 21.875 10.1562C21.6678 10.1562 21.4691 10.2386 21.3226 10.3851C21.1761 10.5316 21.0938 10.7303 21.0938 10.9375V20.3125C21.0938 20.5197 21.1761 20.7184 21.3226 20.8649C21.4691 21.0114 21.6678 21.0938 21.875 21.0938Z" fill="#CE8D52"></path> <path d="M28.125 5.46875H34.375C34.5822 5.46875 34.7809 5.38644 34.9274 5.23993C35.0739 5.09341 35.1562 4.8947 35.1562 4.6875C35.1562 4.4803 35.0739 4.28159 34.9274 4.13507C34.7809 3.98856 34.5822 3.90625 34.375 3.90625H28.125C27.9178 3.90625 27.7191 3.98856 27.5726 4.13507C27.4261 4.28159 27.3438 4.4803 27.3438 4.6875C27.3438 4.8947 27.4261 5.09341 27.5726 5.23993C27.7191 5.38644 27.9178 5.46875 28.125 5.46875Z" fill="#CE8D52"></path> <path d="M45.3125 46.0938C45.744 46.0938 46.0938 45.744 46.0938 45.3125C46.0938 44.881 45.744 44.5312 45.3125 44.5312C44.881 44.5312 44.5312 44.881 44.5312 45.3125C44.5312 45.744 44.881 46.0938 45.3125 46.0938Z" fill="#CE8D52"></path> <path d="M39.8438 46.0938C40.2752 46.0938 40.625 45.744 40.625 45.3125C40.625 44.881 40.2752 44.5312 39.8438 44.5312C39.4123 44.5312 39.0625 44.881 39.0625 45.3125C39.0625 45.744 39.4123 46.0938 39.8438 46.0938Z" fill="#CE8D52"></path> <path d="M33.5938 46.0938C34.0252 46.0938 34.375 45.744 34.375 45.3125C34.375 44.881 34.0252 44.5312 33.5938 44.5312C33.1623 44.5312 32.8125 44.881 32.8125 45.3125C32.8125 45.744 33.1623 46.0938 33.5938 46.0938Z" fill="#CE8D52"></path> <path d="M28.125 46.0938C28.5565 46.0938 28.9062 45.744 28.9062 45.3125C28.9062 44.881 28.5565 44.5312 28.125 44.5312C27.6935 44.5312 27.3438 44.881 27.3438 45.3125C27.3438 45.744 27.6935 46.0938 28.125 46.0938Z" fill="#CE8D52"></path> <path d="M4.6875 46.0938C5.11897 46.0938 5.46875 45.744 5.46875 45.3125C5.46875 44.881 5.11897 44.5312 4.6875 44.5312C4.25603 44.5312 3.90625 44.881 3.90625 45.3125C3.90625 45.744 4.25603 46.0938 4.6875 46.0938Z" fill="#CE8D52"></path> <path d="M4.6875 40.625C5.11897 40.625 5.46875 40.2752 5.46875 39.8438C5.46875 39.4123 5.11897 39.0625 4.6875 39.0625C4.25603 39.0625 3.90625 39.4123 3.90625 39.8438C3.90625 40.2752 4.25603 40.625 4.6875 40.625Z" fill="#CE8D52"></path> <path d="M4.6875 34.375C5.11897 34.375 5.46875 34.0252 5.46875 33.5938C5.46875 33.1623 5.11897 32.8125 4.6875 32.8125C4.25603 32.8125 3.90625 33.1623 3.90625 33.5938C3.90625 34.0252 4.25603 34.375 4.6875 34.375Z" fill="#CE8D52"></path> <path d="M4.6875 28.9062C5.11897 28.9062 5.46875 28.5565 5.46875 28.125C5.46875 27.6935 5.11897 27.3438 4.6875 27.3438C4.25603 27.3438 3.90625 27.6935 3.90625 28.125C3.90625 28.5565 4.25603 28.9062 4.6875 28.9062Z" fill="#CE8D52"></path> <path d="M28.125 28.9062C27.9178 28.9062 27.7191 28.9886 27.5726 29.1351C27.4261 29.2816 27.3438 29.4803 27.3438 29.6875V39.0625C27.3438 39.2697 27.4261 39.4684 27.5726 39.6149C27.7191 39.7614 27.9178 39.8438 28.125 39.8438C28.3322 39.8438 28.5309 39.7614 28.6774 39.6149C28.8239 39.4684 28.9062 39.2697 28.9062 39.0625V29.6875C28.9062 29.4803 28.8239 29.2816 28.6774 29.1351C28.5309 28.9886 28.3322 28.9062 28.125 28.9062Z" fill="#CE8D52"></path> <path d="M21.875 44.5312H15.625C15.4178 44.5312 15.2191 44.6136 15.0726 44.7601C14.9261 44.9066 14.8438 45.1053 14.8438 45.3125C14.8438 45.5197 14.9261 45.7184 15.0726 45.8649C15.2191 46.0114 15.4178 46.0938 15.625 46.0938H21.875C22.0822 46.0938 22.2809 46.0114 22.4274 45.8649C22.5739 45.7184 22.6562 45.5197 22.6562 45.3125C22.6562 45.1053 22.5739 44.9066 22.4274 44.7601C22.2809 44.6136 22.0822 44.5312 21.875 44.5312Z" fill="#CE8D52"></path> </svg> 