<?xml version="1.0" encoding="UTF-8"?> <svg xmlns="http://www.w3.org/2000/svg" width="54" height="54" viewBox="0 0 54 54" fill="none"> <circle cx="27" cy="27" r="27" fill="#FFC453"></circle> <g clip-path="url(#clip0)"> <path d="M37.0601 23.668L33.6301 20.38L30.2701 17.02L16.6301 30.65L19.9691 33.988L23.3511 37.371L37.0601 23.668Z" fill="white"></path> <path d="M30.9769 16.313L34.337 19.673L37.752 22.946C37.756 22.95 37.758 22.956 37.762 22.96L37.921 22.8C38.62 22.1 39.005 21.171 39.002 20.183C39 19.2 38.615 18.278 37.92 17.59L36.412 16.082C35.722 15.385 34.8 15 33.8159 14.998C33.8139 14.998 33.811 14.998 33.808 14.998C32.8239 14.998 31.8969 15.382 31.1979 16.081L30.9709 16.309C30.9729 16.311 30.9749 16.311 30.9769 16.313Z" fill="white"></path> <path d="M16.2878 31.7219L15.0148 38.1039C14.9658 38.3499 15.0418 38.6039 15.2198 38.7809C15.3608 38.9219 15.5528 38.9999 15.7498 38.9999C15.7988 38.9999 15.8478 38.9949 15.8958 38.9849L22.2778 37.7119L16.2878 31.7219Z" fill="white"></path> </g> <defs> <clipPath id="clip0"> <rect width="24" height="24" fill="white" transform="translate(15 15)"></rect> </clipPath> </defs> </svg> 