<?xml version="1.0" encoding="UTF-8"?> <svg xmlns="http://www.w3.org/2000/svg" width="54" height="54" viewBox="0 0 54 54" fill="none"> <circle cx="27" cy="27" r="27" fill="#FB8181"></circle> <path d="M29.7739 18.3317C29.6004 17.3722 29.7966 16.3997 30.3265 15.5937C30.8563 14.7875 31.6561 14.2442 32.5788 14.0639C32.7949 14.0215 33.0151 14 33.233 14C34.9197 14 36.3705 15.2537 36.6827 16.9809C37.0408 18.9618 35.7826 20.8763 33.8778 21.2489C33.6616 21.2912 33.4415 21.3126 33.2238 21.3126C31.537 21.3124 30.0861 20.0589 29.7739 18.3317ZM38.4524 35.3765C38.3807 35.5891 38.21 35.7492 37.9991 35.8012L21.0388 39.9822C20.9899 39.9942 20.9408 40 20.8921 40C20.674 40 20.4665 39.8827 20.3493 39.6828C20.3013 39.6008 19.1581 37.6095 18.0465 32.274C16.9449 26.9865 16.7124 18.689 16.703 18.3384C16.6936 17.9865 16.951 17.6887 17.2885 17.661L28.522 16.7433C28.415 17.3411 28.4131 17.9603 28.5245 18.5759C28.6292 19.1554 28.8286 19.6956 29.1033 20.1809L25.2981 23.3334C25.0235 23.5609 24.9782 23.9767 25.1969 24.2622C25.3224 24.426 25.5076 24.5114 25.6945 24.5114C25.8333 24.5114 25.973 24.4644 26.0901 24.3675L29.8883 21.2211C30.7569 22.1014 31.94 22.6346 33.2237 22.6346C33.5201 22.6346 33.8192 22.6055 34.1126 22.5481C34.2994 22.5116 34.481 22.463 34.6582 22.4055C34.7448 23.4955 34.8569 24.7054 35.0033 26.0004C35.569 31.0031 38.3254 34.7138 38.3531 34.7507C38.4866 34.928 38.5241 35.1639 38.4524 35.3765ZM29.6949 33.0149C29.6125 32.6601 29.269 32.4418 28.9278 32.5277L22.2047 34.2181C21.8634 34.3039 21.6538 34.6611 21.7362 35.0159C21.8066 35.3186 22.0668 35.5217 22.3536 35.5217C22.403 35.5217 22.4532 35.5157 22.5035 35.503L29.2265 33.8127C29.5677 33.7269 29.7773 33.3698 29.6949 33.0149ZM31.7474 27.5708C31.6759 27.2135 31.3395 26.9832 30.996 27.058L20.8902 29.2394C20.5465 29.3135 20.3257 29.6635 20.397 30.0209C20.4593 30.3331 20.7237 30.5478 21.0187 30.5478C21.0615 30.5478 21.1051 30.5433 21.1485 30.5339L31.2543 28.3526C31.5979 28.2783 31.8188 27.9283 31.7474 27.5708Z" fill="white"></path> </svg> 