<?xml version="1.0" encoding="UTF-8"?> <svg xmlns="http://www.w3.org/2000/svg" width="201" height="201" viewBox="0 0 201 201" fill="none"> <ellipse cx="2.94777" cy="20.6912" rx="2.94777" ry="2.95588" fill="#F0F0F0"></ellipse> <ellipse cx="20.6343" cy="20.6912" rx="2.94777" ry="2.95588" fill="#F0F0F0"></ellipse> <ellipse cx="2.9485" cy="2.95588" rx="2.94777" ry="2.95588" fill="#F0F0F0"></ellipse> <ellipse cx="20.6343" cy="2.95588" rx="2.94777" ry="2.95588" fill="#F0F0F0"></ellipse> <ellipse cx="38.3215" cy="20.6912" rx="2.94777" ry="2.95588" fill="#F0F0F0"></ellipse> <ellipse cx="56.0081" cy="20.6912" rx="2.94777" ry="2.95588" fill="#F0F0F0"></ellipse> <ellipse cx="38.3213" cy="2.95588" rx="2.94777" ry="2.95588" fill="#F0F0F0"></ellipse> <ellipse cx="56.0081" cy="2.95588" rx="2.94777" ry="2.95588" fill="#F0F0F0"></ellipse> <ellipse cx="73.6944" cy="20.6912" rx="2.94777" ry="2.95588" fill="#F0F0F0"></ellipse> <ellipse cx="91.3809" cy="20.6912" rx="2.94777" ry="2.95588" fill="#F0F0F0"></ellipse> <ellipse cx="73.6944" cy="2.95588" rx="2.94777" ry="2.95588" fill="#F0F0F0"></ellipse> <ellipse cx="91.3809" cy="2.95588" rx="2.94777" ry="2.95588" fill="#F0F0F0"></ellipse> <ellipse cx="109.068" cy="20.6912" rx="2.94777" ry="2.95588" fill="#F0F0F0"></ellipse> <ellipse cx="126.754" cy="20.6912" rx="2.94777" ry="2.95588" fill="#F0F0F0"></ellipse> <ellipse cx="109.068" cy="2.95588" rx="2.94777" ry="2.95588" fill="#F0F0F0"></ellipse> <ellipse cx="126.754" cy="2.95588" rx="2.94777" ry="2.95588" fill="#F0F0F0"></ellipse> <ellipse cx="144.441" cy="20.6912" rx="2.94777" ry="2.95588" fill="#F0F0F0"></ellipse> <ellipse cx="162.128" cy="20.6912" rx="2.94777" ry="2.95588" fill="#F0F0F0"></ellipse> <ellipse cx="144.442" cy="2.95588" rx="2.94777" ry="2.95588" fill="#F0F0F0"></ellipse> <ellipse cx="162.127" cy="2.95588" rx="2.94777" ry="2.95588" fill="#F0F0F0"></ellipse> <ellipse cx="179.814" cy="20.6912" rx="2.94777" ry="2.95588" fill="#F0F0F0"></ellipse> <ellipse cx="197.501" cy="20.6912" rx="2.94777" ry="2.95588" fill="#F0F0F0"></ellipse> <ellipse cx="179.814" cy="2.95588" rx="2.94777" ry="2.95588" fill="#F0F0F0"></ellipse> <ellipse cx="197.501" cy="2.95588" rx="2.94777" ry="2.95588" fill="#F0F0F0"></ellipse> <ellipse cx="2.94777" cy="56.1619" rx="2.94777" ry="2.95588" fill="#F0F0F0"></ellipse> <ellipse cx="20.6343" cy="56.1619" rx="2.94777" ry="2.95588" fill="#F0F0F0"></ellipse> <ellipse cx="2.94777" cy="38.4266" rx="2.94777" ry="2.95588" fill="#F0F0F0"></ellipse> <ellipse cx="20.6343" cy="38.4266" rx="2.94777" ry="2.95588" fill="#F0F0F0"></ellipse> <ellipse cx="38.3213" cy="56.1619" rx="2.94777" ry="2.95588" fill="#F0F0F0"></ellipse> <ellipse cx="56.0078" cy="56.1619" rx="2.94777" ry="2.95588" fill="#F0F0F0"></ellipse> <ellipse cx="38.3213" cy="38.4266" rx="2.94777" ry="2.95588" fill="#F0F0F0"></ellipse> <ellipse cx="56.0078" cy="38.4266" rx="2.94777" ry="2.95588" fill="#F0F0F0"></ellipse> <ellipse cx="73.6946" cy="56.1619" rx="2.94777" ry="2.95588" fill="#F0F0F0"></ellipse> <ellipse cx="91.3811" cy="56.1619" rx="2.94777" ry="2.95588" fill="#F0F0F0"></ellipse> <ellipse cx="73.6944" cy="38.4266" rx="2.94777" ry="2.95588" fill="#F0F0F0"></ellipse> <ellipse cx="91.3811" cy="38.4266" rx="2.94777" ry="2.95588" fill="#F0F0F0"></ellipse> <ellipse cx="109.068" cy="56.1619" rx="2.94777" ry="2.95588" fill="#F0F0F0"></ellipse> <ellipse cx="126.754" cy="56.1619" rx="2.94777" ry="2.95588" fill="#F0F0F0"></ellipse> <ellipse cx="109.068" cy="38.4266" rx="2.94777" ry="2.95588" fill="#F0F0F0"></ellipse> <ellipse cx="126.754" cy="38.4266" rx="2.94777" ry="2.95588" fill="#F0F0F0"></ellipse> <ellipse cx="144.441" cy="56.1619" rx="2.94777" ry="2.95588" fill="#F0F0F0"></ellipse> <ellipse cx="162.127" cy="56.1619" rx="2.94777" ry="2.95588" fill="#F0F0F0"></ellipse> <ellipse cx="144.441" cy="38.4266" rx="2.94777" ry="2.95588" fill="#F0F0F0"></ellipse> <ellipse cx="162.127" cy="38.4266" rx="2.94777" ry="2.95588" fill="#F0F0F0"></ellipse> <ellipse cx="179.814" cy="56.1619" rx="2.94777" ry="2.95588" fill="#F0F0F0"></ellipse> <ellipse cx="197.501" cy="56.1619" rx="2.94777" ry="2.95588" fill="#F0F0F0"></ellipse> <ellipse cx="179.814" cy="38.4266" rx="2.94777" ry="2.95588" fill="#F0F0F0"></ellipse> <ellipse cx="197.501" cy="38.4266" rx="2.94777" ry="2.95588" fill="#F0F0F0"></ellipse> <ellipse cx="2.94802" cy="91.6325" rx="2.94777" ry="2.95588" fill="#F0F0F0"></ellipse> <ellipse cx="20.6345" cy="91.6325" rx="2.94777" ry="2.95588" fill="#F0F0F0"></ellipse> <ellipse cx="2.94826" cy="73.8973" rx="2.94777" ry="2.95588" fill="#F0F0F0"></ellipse> <ellipse cx="20.6345" cy="73.8973" rx="2.94777" ry="2.95588" fill="#F0F0F0"></ellipse> <ellipse cx="38.3211" cy="91.6325" rx="2.94777" ry="2.95588" fill="#F0F0F0"></ellipse> <ellipse cx="56.0076" cy="91.6325" rx="2.94777" ry="2.95588" fill="#F0F0F0"></ellipse> <ellipse cx="38.3211" cy="73.8973" rx="2.94777" ry="2.95588" fill="#F0F0F0"></ellipse> <ellipse cx="56.0076" cy="73.8973" rx="2.94777" ry="2.95588" fill="#F0F0F0"></ellipse> <ellipse cx="73.6944" cy="91.6325" rx="2.94777" ry="2.95588" fill="#F0F0F0"></ellipse> <ellipse cx="91.3811" cy="91.6325" rx="2.94777" ry="2.95588" fill="#F0F0F0"></ellipse> <ellipse cx="73.6944" cy="73.8973" rx="2.94777" ry="2.95588" fill="#F0F0F0"></ellipse> <ellipse cx="91.3809" cy="73.8973" rx="2.94777" ry="2.95588" fill="#F0F0F0"></ellipse> <ellipse cx="109.068" cy="91.6321" rx="2.94777" ry="2.95588" fill="#F0F0F0"></ellipse> <ellipse cx="126.754" cy="91.6325" rx="2.94777" ry="2.95588" fill="#F0F0F0"></ellipse> <ellipse cx="109.068" cy="73.8973" rx="2.94777" ry="2.95588" fill="#F0F0F0"></ellipse> <ellipse cx="126.754" cy="73.8973" rx="2.94777" ry="2.95588" fill="#F0F0F0"></ellipse> <ellipse cx="144.441" cy="91.6325" rx="2.94777" ry="2.95588" fill="#F0F0F0"></ellipse> <ellipse cx="162.127" cy="91.6325" rx="2.94777" ry="2.95588" fill="#F0F0F0"></ellipse> <ellipse cx="144.441" cy="73.8973" rx="2.94777" ry="2.95588" fill="#F0F0F0"></ellipse> <ellipse cx="162.127" cy="73.8973" rx="2.94777" ry="2.95588" fill="#F0F0F0"></ellipse> <ellipse cx="179.814" cy="91.6321" rx="2.94777" ry="2.95588" fill="#F0F0F0"></ellipse> <ellipse cx="197.501" cy="91.6321" rx="2.94777" ry="2.95588" fill="#F0F0F0"></ellipse> <ellipse cx="179.814" cy="73.8969" rx="2.94777" ry="2.95588" fill="#F0F0F0"></ellipse> <ellipse cx="197.501" cy="73.8968" rx="2.94777" ry="2.95588" fill="#F0F0F0"></ellipse> <ellipse cx="2.94777" cy="127.103" rx="2.94777" ry="2.95588" fill="#F0F0F0"></ellipse> <ellipse cx="20.6343" cy="127.103" rx="2.94777" ry="2.95588" fill="#F0F0F0"></ellipse> <ellipse cx="2.94777" cy="109.368" rx="2.94777" ry="2.95588" fill="#F0F0F0"></ellipse> <ellipse cx="20.6343" cy="109.368" rx="2.94777" ry="2.95588" fill="#F0F0F0"></ellipse> <ellipse cx="38.3213" cy="127.103" rx="2.94777" ry="2.95588" fill="#F0F0F0"></ellipse> <ellipse cx="56.0078" cy="127.103" rx="2.94777" ry="2.95588" fill="#F0F0F0"></ellipse> <ellipse cx="38.3213" cy="109.368" rx="2.94777" ry="2.95588" fill="#F0F0F0"></ellipse> <ellipse cx="56.0078" cy="109.368" rx="2.94777" ry="2.95588" fill="#F0F0F0"></ellipse> <ellipse cx="73.6944" cy="127.103" rx="2.94777" ry="2.95588" fill="#F0F0F0"></ellipse> <ellipse cx="91.3811" cy="127.103" rx="2.94777" ry="2.95588" fill="#F0F0F0"></ellipse> <ellipse cx="73.6944" cy="109.368" rx="2.94777" ry="2.95588" fill="#F0F0F0"></ellipse> <ellipse cx="91.3809" cy="109.368" rx="2.94777" ry="2.95588" fill="#F0F0F0"></ellipse> <ellipse cx="109.068" cy="127.103" rx="2.94777" ry="2.95588" fill="#F0F0F0"></ellipse> <ellipse cx="126.754" cy="127.103" rx="2.94777" ry="2.95588" fill="#F0F0F0"></ellipse> <ellipse cx="109.068" cy="109.368" rx="2.94777" ry="2.95588" fill="#F0F0F0"></ellipse> <ellipse cx="126.754" cy="109.368" rx="2.94777" ry="2.95588" fill="#F0F0F0"></ellipse> <ellipse cx="144.441" cy="127.103" rx="2.94777" ry="2.95588" fill="#F0F0F0"></ellipse> <ellipse cx="162.127" cy="127.103" rx="2.94777" ry="2.95588" fill="#F0F0F0"></ellipse> <ellipse cx="144.441" cy="109.368" rx="2.94777" ry="2.95588" fill="#F0F0F0"></ellipse> <ellipse cx="162.127" cy="109.368" rx="2.94777" ry="2.95588" fill="#F0F0F0"></ellipse> <ellipse cx="179.814" cy="127.103" rx="2.94777" ry="2.95588" fill="#F0F0F0"></ellipse> <ellipse cx="197.501" cy="127.103" rx="2.94777" ry="2.95588" fill="#F0F0F0"></ellipse> <ellipse cx="179.814" cy="109.368" rx="2.94777" ry="2.95588" fill="#F0F0F0"></ellipse> <ellipse cx="197.501" cy="109.368" rx="2.94777" ry="2.95588" fill="#F0F0F0"></ellipse> <ellipse cx="2.94802" cy="162.574" rx="2.94777" ry="2.95588" fill="#F0F0F0"></ellipse> <ellipse cx="20.6348" cy="162.574" rx="2.94777" ry="2.95588" fill="#F0F0F0"></ellipse> <ellipse cx="2.94802" cy="144.838" rx="2.94777" ry="2.95588" fill="#F0F0F0"></ellipse> <ellipse cx="20.6348" cy="144.838" rx="2.94777" ry="2.95588" fill="#F0F0F0"></ellipse> <ellipse cx="38.3211" cy="162.574" rx="2.94777" ry="2.95588" fill="#F0F0F0"></ellipse> <ellipse cx="56.0078" cy="162.574" rx="2.94777" ry="2.95588" fill="#F0F0F0"></ellipse> <ellipse cx="38.3211" cy="144.838" rx="2.94777" ry="2.95588" fill="#F0F0F0"></ellipse> <ellipse cx="56.0076" cy="144.838" rx="2.94777" ry="2.95588" fill="#F0F0F0"></ellipse> <ellipse cx="73.6944" cy="162.574" rx="2.94777" ry="2.95588" fill="#F0F0F0"></ellipse> <ellipse cx="91.3811" cy="162.574" rx="2.94777" ry="2.95588" fill="#F0F0F0"></ellipse> <ellipse cx="73.6944" cy="144.838" rx="2.94777" ry="2.95588" fill="#F0F0F0"></ellipse> <ellipse cx="91.3809" cy="144.838" rx="2.94777" ry="2.95588" fill="#F0F0F0"></ellipse> <ellipse cx="109.068" cy="162.574" rx="2.94777" ry="2.95588" fill="#F0F0F0"></ellipse> <ellipse cx="126.754" cy="162.574" rx="2.94777" ry="2.95588" fill="#F0F0F0"></ellipse> <ellipse cx="109.068" cy="144.838" rx="2.94777" ry="2.95588" fill="#F0F0F0"></ellipse> <ellipse cx="126.754" cy="144.838" rx="2.94777" ry="2.95588" fill="#F0F0F0"></ellipse> <ellipse cx="144.441" cy="162.574" rx="2.94777" ry="2.95588" fill="#F0F0F0"></ellipse> <ellipse cx="162.128" cy="162.574" rx="2.94777" ry="2.95588" fill="#F0F0F0"></ellipse> <ellipse cx="144.441" cy="144.838" rx="2.94777" ry="2.95588" fill="#F0F0F0"></ellipse> <ellipse cx="162.127" cy="144.838" rx="2.94777" ry="2.95588" fill="#F0F0F0"></ellipse> <ellipse cx="179.814" cy="162.574" rx="2.94777" ry="2.95588" fill="#F0F0F0"></ellipse> <ellipse cx="197.501" cy="162.574" rx="2.94777" ry="2.95588" fill="#F0F0F0"></ellipse> <ellipse cx="179.814" cy="144.838" rx="2.94777" ry="2.95588" fill="#F0F0F0"></ellipse> <ellipse cx="197.501" cy="144.838" rx="2.94777" ry="2.95588" fill="#F0F0F0"></ellipse> <ellipse cx="2.94777" cy="198.044" rx="2.94777" ry="2.95588" fill="#F0F0F0"></ellipse> <ellipse cx="20.6345" cy="198.044" rx="2.94777" ry="2.95588" fill="#F0F0F0"></ellipse> <ellipse cx="2.94777" cy="180.309" rx="2.94777" ry="2.95588" fill="#F0F0F0"></ellipse> <ellipse cx="20.6345" cy="180.309" rx="2.94777" ry="2.95588" fill="#F0F0F0"></ellipse> <ellipse cx="38.3213" cy="198.044" rx="2.94777" ry="2.95588" fill="#F0F0F0"></ellipse> <ellipse cx="56.0081" cy="198.044" rx="2.94777" ry="2.95588" fill="#F0F0F0"></ellipse> <ellipse cx="38.3213" cy="180.309" rx="2.94777" ry="2.95588" fill="#F0F0F0"></ellipse> <ellipse cx="56.0078" cy="180.309" rx="2.94777" ry="2.95588" fill="#F0F0F0"></ellipse> <ellipse cx="73.6944" cy="198.044" rx="2.94777" ry="2.95588" fill="#F0F0F0"></ellipse> <ellipse cx="91.3809" cy="198.044" rx="2.94777" ry="2.95588" fill="#F0F0F0"></ellipse> <ellipse cx="73.6944" cy="180.309" rx="2.94777" ry="2.95588" fill="#F0F0F0"></ellipse> <ellipse cx="91.3809" cy="180.309" rx="2.94777" ry="2.95588" fill="#F0F0F0"></ellipse> <ellipse cx="109.068" cy="198.044" rx="2.94777" ry="2.95588" fill="#F0F0F0"></ellipse> <ellipse cx="126.754" cy="198.044" rx="2.94777" ry="2.95588" fill="#F0F0F0"></ellipse> <ellipse cx="109.068" cy="180.309" rx="2.94777" ry="2.95588" fill="#F0F0F0"></ellipse> <ellipse cx="126.754" cy="180.309" rx="2.94777" ry="2.95588" fill="#F0F0F0"></ellipse> <ellipse cx="144.441" cy="198.044" rx="2.94777" ry="2.95588" fill="#F0F0F0"></ellipse> <ellipse cx="162.127" cy="198.044" rx="2.94777" ry="2.95588" fill="#F0F0F0"></ellipse> <ellipse cx="144.441" cy="180.309" rx="2.94777" ry="2.95588" fill="#F0F0F0"></ellipse> <ellipse cx="162.127" cy="180.309" rx="2.94777" ry="2.95588" fill="#F0F0F0"></ellipse> <ellipse cx="179.814" cy="198.044" rx="2.94777" ry="2.95588" fill="#F0F0F0"></ellipse> <ellipse cx="197.501" cy="198.044" rx="2.94777" ry="2.95588" fill="#F0F0F0"></ellipse> <ellipse cx="179.814" cy="180.309" rx="2.94777" ry="2.95588" fill="#F0F0F0"></ellipse> <ellipse cx="197.501" cy="180.309" rx="2.94777" ry="2.95588" fill="#F0F0F0"></ellipse> </svg> 