<?xml version="1.0" encoding="UTF-8"?> <svg xmlns="http://www.w3.org/2000/svg" width="73" height="72" viewBox="0 0 73 72" fill="none"> <path d="M47.808 11.991C41.6047 11.9834 35.6203 14.285 31.0207 18.4472C25.7184 11.6543 16.1344 9.97863 8.84268 14.5707C1.55033 19.1621 -1.08089 28.5289 2.75352 36.2463C6.58793 43.9631 15.6426 47.5235 23.7061 44.4854C24.0462 45.6019 24.4666 46.6921 24.9631 47.7484C20.059 50.9768 17.8816 57.0589 19.6217 62.6662C21.3617 68.2729 26.6002 72.0541 32.4698 71.9393C38.34 71.8245 43.4262 67.842 44.9461 62.1709C54.225 63.24 63.333 59.0836 68.606 51.3738C73.8784 43.664 74.4487 33.6684 70.0867 25.4088C65.7248 17.1492 57.1484 11.984 47.808 11.991ZM3.44148 28.7783C3.43153 22.5896 7.38655 17.0906 13.2567 15.131C19.1269 13.1713 25.5925 15.1919 29.3022 20.1452C25.0047 24.7729 22.62 30.8568 22.627 37.172C22.6305 38.8401 22.7991 40.5029 23.1294 42.1376C18.7018 43.9122 13.6812 43.3706 9.7338 40.692C5.78639 38.0139 3.4286 33.5489 3.44148 28.7783ZM32.2198 69.5476C26.2594 69.5476 21.4279 64.716 21.4279 58.7557C21.4279 52.7959 26.2594 47.9638 32.2198 47.9638C38.1801 47.9638 43.0116 52.7959 43.0116 58.7557C43.0052 64.7131 38.1772 69.5411 32.2198 69.5476ZM47.808 59.9548C46.9889 59.9489 46.171 59.8992 45.3571 59.8049C45.3846 59.4583 45.4098 59.1099 45.4098 58.7557C45.4098 54.3334 43.1925 50.2051 39.5063 47.7618C35.8194 45.3186 31.1536 44.8859 27.0803 46.609C26.4843 45.3151 26.0135 43.9672 25.6751 42.5837C25.2442 40.812 25.0258 38.9952 25.0252 37.172C25.0252 24.5897 35.2257 14.3892 47.808 14.3892C60.3909 14.3892 70.5908 24.5897 70.5908 37.172C70.5908 49.7549 60.3909 59.9548 47.808 59.9548Z" fill="#71D6C9"></path> <path d="M11.8352 53.9589C11.8352 53.2967 11.2983 52.7598 10.6361 52.7598C9.97391 52.7598 9.43701 53.2967 9.43701 53.9589C9.43701 55.946 7.82631 57.5562 5.83972 57.5562C5.17752 57.5562 4.64062 58.0931 4.64062 58.7553C4.64062 59.4174 5.17752 59.9543 5.83972 59.9543C7.82631 59.9543 9.43701 61.565 9.43701 63.5516C9.43701 64.2138 9.97391 64.7507 10.6361 64.7507C11.2983 64.7507 11.8352 64.2138 11.8352 63.5516C11.8352 61.565 13.4459 59.9543 15.4325 59.9543C16.0947 59.9543 16.6316 59.4174 16.6316 58.7553C16.6316 58.0931 16.0947 57.5562 15.4325 57.5562C13.4459 57.5562 11.8352 55.946 11.8352 53.9589ZM10.6361 59.9918C10.2871 59.5211 9.87027 59.1048 9.40012 58.7553C9.87027 58.4063 10.2871 57.9894 10.6361 57.5193C10.9856 57.9894 11.4019 58.4063 11.8727 58.7553C11.4019 59.1048 10.9856 59.5211 10.6361 59.9918Z" fill="#71D6C9"></path> <path d="M59.7991 10.7919C59.7991 11.4541 60.336 11.991 60.9982 11.991C61.6604 11.991 62.1973 11.4541 62.1973 10.7919C62.1973 8.80527 63.808 7.19457 65.7945 7.19457C66.4567 7.19457 66.9936 6.65767 66.9936 5.99548C66.9936 5.33328 66.4567 4.79638 65.7945 4.79638C63.808 4.79638 62.1973 3.18627 62.1973 1.1991C62.1973 0.5369 61.6604 0 60.9982 0C60.336 0 59.7991 0.5369 59.7991 1.1991C59.7991 3.18627 58.1884 4.79638 56.2018 4.79638C55.5396 4.79638 55.0027 5.33328 55.0027 5.99548C55.0027 6.65767 55.5396 7.19457 56.2018 7.19457C58.1884 7.19457 59.7991 8.80527 59.7991 10.7919ZM60.9982 4.7595C61.3477 5.22965 61.764 5.64652 62.2347 5.99548C61.764 6.34502 61.3477 6.76131 60.9982 7.23204C60.6492 6.76131 60.2323 6.34502 59.7622 5.99548C60.2323 5.64652 60.6492 5.22965 60.9982 4.7595Z" fill="#71D6C9"></path> <path d="M63.3963 37.1719C61.4098 37.1719 59.7991 35.5618 59.7991 33.5746C59.7991 32.9124 59.2622 32.3755 58.6 32.3755C57.9378 32.3755 57.4009 32.9124 57.4009 33.5746C57.4009 35.5618 55.7902 37.1719 53.8036 37.1719C53.1414 37.1719 52.6045 37.7088 52.6045 38.371C52.6045 39.0332 53.1414 39.5701 53.8036 39.5701C55.7902 39.5701 57.4009 41.1808 57.4009 43.1673C57.4009 43.8295 57.9378 44.3664 58.6 44.3664C59.2622 44.3664 59.7991 43.8295 59.7991 43.1673C59.7991 41.1808 61.4098 39.5701 63.3963 39.5701C64.0585 39.5701 64.5954 39.0332 64.5954 38.371C64.5954 37.7088 64.0585 37.1719 63.3963 37.1719ZM58.6 39.6075C58.251 39.1368 57.8341 38.7205 57.364 38.371C57.8341 38.022 58.251 37.6051 58.6 37.135C58.9495 37.6051 59.3658 38.022 59.8365 38.371C59.3658 38.7205 58.9495 39.1368 58.6 39.6075Z" fill="#71D6C9"></path> <path d="M50.2063 27.579C50.2063 26.9168 49.6694 26.3799 49.0072 26.3799C47.0206 26.3799 45.4099 24.7698 45.4099 22.7826C45.4099 22.1204 44.873 21.5835 44.2108 21.5835C43.5486 21.5835 43.0117 22.1204 43.0117 22.7826C43.0117 24.7698 41.401 26.3799 39.4144 26.3799C38.7522 26.3799 38.2153 26.9168 38.2153 27.579C38.2153 28.2412 38.7522 28.7781 39.4144 28.7781C41.401 28.7781 43.0117 30.3888 43.0117 32.3753C43.0117 33.0375 43.5486 33.5744 44.2108 33.5744C44.873 33.5744 45.4099 33.0375 45.4099 32.3753C45.4099 30.3888 47.0206 28.7781 49.0072 28.7781C49.6694 28.7781 50.2063 28.2412 50.2063 27.579ZM44.2108 28.8155C43.8619 28.3448 43.445 27.9285 42.9748 27.579C43.445 27.23 43.8619 26.8131 44.2108 26.343C44.5603 26.8131 44.9766 27.23 45.4474 27.579C44.9766 27.9285 44.5603 28.3448 44.2108 28.8155Z" fill="#71D6C9"></path> <path d="M15.4326 49.1626H17.8308V51.5608H15.4326V49.1626Z" fill="#71D6C9"></path> <path d="M3.44141 65.9502H5.8396V68.3484H3.44141V65.9502Z" fill="#71D6C9"></path> <path d="M71.7898 62.3527C71.7898 60.3661 70.1791 58.7554 68.1925 58.7554C66.2059 58.7554 64.5952 60.3661 64.5952 62.3527C64.5952 64.3398 66.2059 65.95 68.1925 65.95C70.1791 65.95 71.7898 64.3398 71.7898 62.3527ZM66.9934 62.3527C66.9934 61.6905 67.5303 61.1536 68.1925 61.1536C68.8547 61.1536 69.3916 61.6905 69.3916 62.3527C69.3916 63.0149 68.8547 63.5518 68.1925 63.5518C67.5303 63.5518 66.9934 63.0149 66.9934 62.3527Z" fill="#71D6C9"></path> <path d="M37.0161 8.39355C37.0161 5.74477 34.8685 3.59717 32.2197 3.59717C29.5709 3.59717 27.4233 5.74477 27.4233 8.39355C27.4233 11.0429 29.5709 13.1899 32.2197 13.1899C34.8685 13.1899 37.0161 11.0429 37.0161 8.39355ZM29.8215 8.39355C29.8215 7.06916 30.8953 5.99536 32.2197 5.99536C33.5441 5.99536 34.6179 7.06916 34.6179 8.39355C34.6179 9.71853 33.5441 10.7917 32.2197 10.7917C30.8953 10.7917 29.8215 9.71853 29.8215 8.39355Z" fill="#71D6C9"></path> <path d="M44.2107 5.99512H46.6089V8.39331H44.2107V5.99512Z" fill="#71D6C9"></path> <path d="M49.0071 50.3618H51.4053V52.76H49.0071V50.3618Z" fill="#71D6C9"></path> <path d="M56.2017 65.9502H58.5999V68.3484H56.2017V65.9502Z" fill="#71D6C9"></path> <path d="M15.4326 31.1763H17.8308V33.5745H15.4326V31.1763Z" fill="#71D6C9"></path> <path d="M5.83977 31.2846L8.23796 31.0686C8.2321 31.0112 7.75844 25.3044 10.9178 21.8353C12.7305 19.9945 15.2516 19.0278 17.8307 19.1853V16.7871C14.5736 16.615 11.4026 17.8686 9.14313 20.2217C5.27242 24.4618 5.81928 31.0088 5.83977 31.2846Z" fill="#71D6C9"></path> <path d="M49.0071 16.7871V19.1853C49.6066 19.1853 63.5824 19.4412 65.8079 36.1313L68.1844 35.8146C65.6744 17.0055 49.1739 16.7871 49.0071 16.7871Z" fill="#71D6C9"></path> </svg> 