<?xml version="1.0" encoding="UTF-8"?> <svg xmlns="http://www.w3.org/2000/svg" width="54" height="54" viewBox="0 0 54 54" fill="none"> <circle cx="27" cy="27" r="27" fill="#2BB0A8"></circle> <path d="M26.9999 36.0092L30.7965 24.1978H23.2034L26.9999 36.0092Z" fill="white"></path> <path d="M32.5197 24.1978L27.73 39.0991L40.8387 24.1978H32.5197Z" fill="white"></path> <path d="M21.4801 24.1978H13.1611L26.2698 39.0991L21.4801 24.1978Z" fill="white"></path> <path d="M40.9999 22.5571L37.7709 15.7957L33.4243 22.5571H40.9999Z" fill="white"></path> <path d="M17.604 14.9009L22.078 21.8605L26.5521 14.9009H17.604Z" fill="white"></path> <path d="M27.4478 14.9009L31.9218 21.8605L36.3958 14.9009H27.4478Z" fill="white"></path> <path d="M23.5806 22.5571H30.4192L26.9999 17.2382L23.5806 22.5571Z" fill="white"></path> <path d="M16.229 15.7957L13 22.5571H20.5756L16.229 15.7957Z" fill="white"></path> </svg> 