<?xml version="1.0" encoding="UTF-8"?> <svg xmlns="http://www.w3.org/2000/svg" width="62" height="62" viewBox="0 0 62 62" fill="none"> <g clip-path="url(#clip0)"> <path d="M30.7932 60.6326C28.6334 60.6326 26.4748 60.1973 24.4757 59.3278L14.9168 55.1724C11.4586 53.6682 7.80207 52.7155 4.04903 52.3403L0.909933 52.0264C0.39311 51.9749 0 51.5402 0 51.0211V41.1742C0 40.9557 0.0711066 40.743 0.202336 40.5684C0.437046 40.2545 6.06314 32.9045 14.6572 34.8168C19.4907 35.891 23.3825 37.901 25.7961 39.3983C27.5483 40.4851 29.6023 41.0592 31.7361 41.0592H41.295C42.9426 41.0592 44.3908 41.931 45.2007 43.2387L53.4334 33.7537C55.0296 31.6223 57.6409 30.3169 60.3747 30.3169H60.9898C61.3315 30.3169 61.6494 30.4892 61.8356 30.7748C62.0223 31.0603 62.0518 31.4216 61.9148 31.7338L54.4688 48.6561C52.8409 52.3571 49.526 55.1528 45.6025 56.1338L44.2925 56.461L36.6719 59.5094C34.7966 60.2592 32.7946 60.6326 30.7932 60.6326ZM2.02105 50.1065L4.25021 50.3297C8.21195 50.7257 12.0719 51.7321 15.7232 53.3196L25.2816 57.475C28.6427 58.9365 32.5188 58.9937 35.9221 57.6323L43.6051 54.5591C43.6479 54.5423 43.6913 54.5284 43.7358 54.5174L45.1122 54.1729C48.4346 53.3422 51.2413 50.9754 52.6189 47.8421L59.4104 32.4073C57.6715 32.6634 56.0713 33.6005 55.0053 35.0215L45.8852 45.5326C45.8863 45.5719 45.8869 45.6106 45.8869 45.6505C45.8869 48.182 43.8271 50.2418 41.2956 50.2418H27.9588C26.225 50.2418 24.5115 50.5199 22.8668 51.0679L22.4957 50.1256L22.1818 49.1654L22.2332 49.1486C24.0791 48.5335 26.0071 48.2207 27.9588 48.2207H41.2956C42.7125 48.2207 43.8664 47.0674 43.8664 45.6499C43.8664 44.2324 42.7131 43.0791 41.2956 43.0791H31.7367C29.226 43.0791 26.8037 42.3998 24.7318 41.1147C22.4518 39.7001 18.7762 37.8022 14.2202 36.7888C7.71189 35.3452 3.02868 40.34 2.02162 41.5315V50.1065H2.02105Z" fill="#048719"></path> <path d="M39.7907 30.0882C38.2368 30.0882 36.4944 29.6084 34.5763 28.6493C34.3439 28.5325 34.1647 28.3302 34.0768 28.0856C33.9987 27.8665 32.1933 22.6734 35.0624 18.8331C37.1477 16.0415 41.0684 14.7841 46.7222 15.0991C47.2379 15.1275 47.6489 15.5408 47.6743 16.0576C47.6946 16.4588 48.1114 25.9287 43.2825 29.0817C42.2558 29.7529 41.0892 30.0882 39.7907 30.0882ZM35.8649 27.0277C38.5189 28.2724 40.6406 28.3943 42.1783 27.3902C45.0417 25.52 45.6608 19.9685 45.6758 17.0791C41.2458 16.971 38.2299 17.9694 36.6811 20.0419C34.8381 22.5098 35.5544 25.9045 35.8649 27.0277Z" fill="#048719"></path> <path d="M24.3393 16.8503C22.5478 16.8503 20.4811 16.4665 18.6774 15.1455C15.6181 12.9036 14.2121 8.6355 14.4977 2.46021C14.522 1.94397 14.9313 1.52889 15.4476 1.49825C15.8846 1.47339 26.2292 0.921303 29.7099 6.14619C31.3309 8.57827 31.198 11.7636 29.3162 15.6155C29.2018 15.8496 29.0017 16.0306 28.7572 16.1202C28.6214 16.1705 26.7246 16.8503 24.3393 16.8503ZM28.4086 15.1721H28.4184H28.4086ZM16.4864 3.48634C16.3991 8.43259 17.5362 11.8041 19.8712 13.5153C22.6669 15.5635 26.4841 14.6929 27.6843 14.3431C29.0572 11.3636 29.1734 8.98468 28.0288 7.26656C25.9014 4.07312 19.6625 3.44877 16.4864 3.48634Z" fill="#048719"></path> <path d="M32.2299 42.7237C32.1981 42.7237 32.1663 42.722 32.1339 42.7191C31.5957 42.6682 31.1928 42.2029 31.22 41.6623C31.2795 40.4738 31.3812 39.3465 31.5194 38.2781C31.9397 31.1282 31.7229 14.4777 21.1957 9.87133C20.6846 9.64761 20.4511 9.05216 20.6748 8.54054C20.8979 8.03007 21.4951 7.7971 22.0056 8.02025C28.2092 10.7344 32.112 17.4919 33.2896 27.5618C33.3954 28.4643 33.4746 29.354 33.5335 30.2205C36.3061 23.2145 40.5476 20.7391 40.8003 20.5974C41.2859 20.3228 41.9021 20.4974 42.1762 20.9825C42.4484 21.4681 42.2773 22.0826 41.7935 22.3566C41.6865 22.419 35.1823 26.3224 33.5497 38.3596C33.4254 40.4188 33.2462 41.7317 33.2294 41.852C33.1595 42.3561 32.7288 42.7237 32.2299 42.7237Z" fill="#048719"></path> </g> <defs> <clipPath id="clip0"> <rect width="62" height="62" fill="white"></rect> </clipPath> </defs> </svg> 