<?xml version="1.0" encoding="UTF-8"?> <svg xmlns="http://www.w3.org/2000/svg" width="64" height="64" viewBox="0 0 64 64" fill="none"> <path d="M59.3305 9.28374C56.1739 5.70199 51.7948 3.72949 47 3.72949C40.2565 3.72949 35.9871 7.75699 33.5931 11.1357C32.972 12.0125 32.4436 12.8916 32 13.7189C31.5564 12.8916 31.0281 12.0125 30.4069 11.1357C28.0129 7.75699 23.7435 3.72949 17 3.72949C12.2052 3.72949 7.82613 5.70212 4.66937 9.28387C1.65838 12.7006 0 17.2766 0 22.1689C0 27.4942 2.07912 32.4474 6.54313 37.7564C10.5328 42.5014 16.2724 47.3924 22.9188 53.056C25.3954 55.1665 27.9565 57.349 30.6831 59.7346L30.765 59.8064C31.1185 60.1159 31.5592 60.2705 32 60.2705C32.4408 60.2705 32.8815 60.1157 33.235 59.8064L33.3169 59.7346C36.0435 57.349 38.6046 55.1666 41.0816 53.0558C47.7276 47.3925 53.4673 42.5015 57.4569 37.7564C61.9209 32.4472 64 27.4942 64 22.1689C64 17.2766 62.3416 12.7006 59.3305 9.28374ZM38.6491 50.2017C36.5141 52.021 34.3169 53.8934 32 55.9075C29.6833 53.8936 27.4859 52.0211 25.3505 50.2015C12.3431 39.1174 3.75 31.7947 3.75 22.1689C3.75 18.1901 5.07562 14.4946 7.48275 11.7632C9.9175 9.00087 13.2974 7.47949 17 7.47949C22.1411 7.47949 25.4645 10.6467 27.347 13.3037C29.0356 15.6867 29.9167 18.089 30.2173 19.0111C30.4686 19.783 31.1882 20.3054 32 20.3054C32.8117 20.3054 33.5314 19.783 33.7827 19.0111C34.0832 18.089 34.9644 15.6867 36.653 13.3036C38.5355 10.6467 41.8589 7.47949 47 7.47949C50.7026 7.47949 54.0825 9.00087 56.5171 11.7632C58.9244 14.4946 60.25 18.1901 60.25 22.1689C60.25 31.7947 51.6569 39.1174 38.6491 50.2017Z" fill="#FB8181"></path> </svg> 