<?xml version="1.0" encoding="UTF-8"?> <svg xmlns="http://www.w3.org/2000/svg" width="57" height="57" viewBox="0 0 57 57" fill="none"> <g clip-path="url(#clip0)"> <path d="M23.7631 31.5487C25.382 31.5487 26.9038 30.9182 28.0485 29.7736C29.1931 28.6289 29.8236 27.1071 29.8236 25.4882C29.8236 23.8694 29.1931 22.3475 28.0485 21.2028C26.9038 20.0582 25.382 19.4277 23.7631 19.4277C22.1443 19.4277 20.6224 20.0582 19.4777 21.2028C18.3331 22.3475 17.7026 23.8694 17.7026 25.4882C17.7026 27.1071 18.3331 28.6288 19.4777 29.7736C20.6224 30.9182 22.1443 31.5487 23.7631 31.5487ZM21.0522 22.7773C21.7996 22.03 22.7814 21.6562 23.7631 21.6562C24.7448 21.6562 25.7266 22.03 26.474 22.7773C27.9688 24.2722 27.9688 26.7043 26.474 28.1991C24.9792 29.694 22.5471 29.694 21.0522 28.1991C19.5573 26.7043 19.5573 24.2722 21.0522 22.7773Z" fill="#048719"></path> <path d="M56.8456 39.8836L53.4737 27.2996L54.2728 26.8381C55.308 26.2405 56.0483 25.2756 56.3577 24.121C56.6671 22.9665 56.5084 21.7606 55.9107 20.7255L47.506 6.16815C46.9084 5.13301 45.9433 4.39255 44.7889 4.08328C43.6343 3.77411 42.4284 3.93276 41.3933 4.53038L37.8436 6.57974L34.297 3.0331C32.5522 1.28845 29.7134 1.28845 27.9687 3.0331L18.0966 12.9052C17.6618 13.3399 17.6618 14.0449 18.0966 14.4797C18.5313 14.9145 19.2363 14.9145 19.6711 14.4797L29.5432 4.60764C29.9678 4.18303 30.5324 3.94912 31.1329 3.94912C31.7334 3.94912 32.298 4.18303 32.7226 4.60764L44.6088 16.4937C45.4854 17.3702 45.4854 18.7964 44.6088 19.673L17.9484 46.3335C17.0718 47.2101 15.6455 47.2101 14.769 46.3335L2.88288 34.4473C2.00638 33.5708 2.00638 32.1445 2.88288 31.268L12.5863 21.5647C13.021 21.1299 13.021 20.425 12.5863 19.9902C12.1516 19.5555 11.4466 19.5555 11.0119 19.9902L1.30845 29.6936C-0.436205 31.4384 -0.436094 34.2772 1.30845 36.0219L9.78267 44.4961L11.7822 51.9583C12.3172 53.9554 14.1299 55.2755 16.1056 55.2755C16.4879 55.2755 16.8762 55.2261 17.2626 55.1225L53.6815 45.3641C54.836 45.0549 55.801 44.3144 56.3986 43.2793C56.9962 42.2441 57.155 41.0381 56.8456 39.8836ZM46.1834 21.2475C47.928 19.5027 47.928 16.6639 46.1834 14.9193L39.4738 8.20972L42.5068 6.45861C43.5805 5.83884 44.9581 6.20801 45.5779 7.28146L53.9826 21.8389C54.2829 22.3589 54.3626 22.9647 54.2072 23.5448C54.0517 24.1248 53.6798 24.6096 53.1597 24.9099L27.9878 39.4429L46.1834 21.2475ZM54.4702 42.1658C54.17 42.6859 53.6852 43.0579 53.1051 43.2132L16.6862 52.9716C15.4888 53.2919 14.2536 52.5793 13.9328 51.382L12.9314 47.6448L13.1945 47.9079C14.0668 48.7802 15.2127 49.2164 16.3586 49.2164C17.5044 49.2164 18.6503 48.7802 19.5227 47.9079L21.9045 45.5261L51.4773 28.4522L54.6948 40.4598C54.8503 41.0398 54.7705 41.6457 54.4702 42.1658Z" fill="#048719"></path> <path d="M15.3413 18.3481C15.6352 18.3481 15.9213 18.229 16.1284 18.0219C16.3355 17.8149 16.4546 17.5277 16.4546 17.2349C16.4546 16.9421 16.3355 16.6548 16.1284 16.4478C15.9213 16.2407 15.6341 16.1216 15.3413 16.1216C15.0485 16.1216 14.7613 16.2407 14.5542 16.4478C14.3471 16.6548 14.228 16.9421 14.228 17.2349C14.228 17.5288 14.3471 17.8149 14.5542 18.0219C14.7613 18.229 15.0485 18.3481 15.3413 18.3481Z" fill="#048719"></path> </g> <defs> <clipPath id="clip0"> <rect width="57" height="57" fill="white"></rect> </clipPath> </defs> </svg> 