<?xml version="1.0" encoding="UTF-8"?> <svg xmlns="http://www.w3.org/2000/svg" width="160" height="160" viewBox="0 0 160 160" fill="none"> <ellipse cx="2.34673" cy="16.4706" rx="2.34648" ry="2.35294" fill="#C2C2C2"></ellipse> <ellipse cx="16.4256" cy="16.4706" rx="2.34648" ry="2.35294" fill="#C2C2C2"></ellipse> <ellipse cx="2.34697" cy="2.35294" rx="2.34648" ry="2.35294" fill="#C2C2C2"></ellipse> <ellipse cx="16.4253" cy="2.35294" rx="2.34648" ry="2.35294" fill="#C2C2C2"></ellipse> <ellipse cx="30.5047" cy="16.4706" rx="2.34648" ry="2.35294" fill="#C2C2C2"></ellipse> <ellipse cx="44.5833" cy="16.4706" rx="2.34648" ry="2.35294" fill="#C2C2C2"></ellipse> <ellipse cx="30.5044" cy="2.35294" rx="2.34648" ry="2.35294" fill="#C2C2C2"></ellipse> <ellipse cx="44.5833" cy="2.35294" rx="2.34648" ry="2.35294" fill="#C2C2C2"></ellipse> <ellipse cx="58.6622" cy="16.4706" rx="2.34648" ry="2.35294" fill="#C2C2C2"></ellipse> <ellipse cx="72.741" cy="16.4706" rx="2.34648" ry="2.35294" fill="#C2C2C2"></ellipse> <ellipse cx="58.6622" cy="2.35294" rx="2.34648" ry="2.35294" fill="#C2C2C2"></ellipse> <ellipse cx="72.741" cy="2.35294" rx="2.34648" ry="2.35294" fill="#C2C2C2"></ellipse> <ellipse cx="86.8199" cy="16.4706" rx="2.34648" ry="2.35294" fill="#C2C2C2"></ellipse> <ellipse cx="100.899" cy="16.4706" rx="2.34648" ry="2.35294" fill="#C2C2C2"></ellipse> <ellipse cx="86.8199" cy="2.35294" rx="2.34648" ry="2.35294" fill="#C2C2C2"></ellipse> <ellipse cx="100.899" cy="2.35294" rx="2.34648" ry="2.35294" fill="#C2C2C2"></ellipse> <ellipse cx="114.978" cy="16.4706" rx="2.34648" ry="2.35294" fill="#C2C2C2"></ellipse> <ellipse cx="129.057" cy="16.4706" rx="2.34648" ry="2.35294" fill="#C2C2C2"></ellipse> <ellipse cx="114.98" cy="2.35294" rx="2.34648" ry="2.35294" fill="#C2C2C2"></ellipse> <ellipse cx="129.057" cy="2.35294" rx="2.34648" ry="2.35294" fill="#C2C2C2"></ellipse> <ellipse cx="143.136" cy="16.4706" rx="2.34648" ry="2.35294" fill="#C2C2C2"></ellipse> <ellipse cx="157.214" cy="16.4706" rx="2.34648" ry="2.35294" fill="#C2C2C2"></ellipse> <ellipse cx="143.136" cy="2.35294" rx="2.34648" ry="2.35294" fill="#C2C2C2"></ellipse> <ellipse cx="157.215" cy="2.35294" rx="2.34648" ry="2.35294" fill="#C2C2C2"></ellipse> <ellipse cx="2.34648" cy="44.706" rx="2.34648" ry="2.35294" fill="#C2C2C2"></ellipse> <ellipse cx="16.4253" cy="44.706" rx="2.34648" ry="2.35294" fill="#C2C2C2"></ellipse> <ellipse cx="2.34648" cy="30.5883" rx="2.34648" ry="2.35294" fill="#C2C2C2"></ellipse> <ellipse cx="16.4253" cy="30.5883" rx="2.34648" ry="2.35294" fill="#C2C2C2"></ellipse> <ellipse cx="30.5044" cy="44.706" rx="2.34648" ry="2.35294" fill="#C2C2C2"></ellipse> <ellipse cx="44.5833" cy="44.706" rx="2.34648" ry="2.35294" fill="#C2C2C2"></ellipse> <ellipse cx="30.5044" cy="30.5883" rx="2.34648" ry="2.35294" fill="#C2C2C2"></ellipse> <ellipse cx="44.5833" cy="30.5883" rx="2.34648" ry="2.35294" fill="#C2C2C2"></ellipse> <ellipse cx="58.6622" cy="44.706" rx="2.34648" ry="2.35294" fill="#C2C2C2"></ellipse> <ellipse cx="72.7413" cy="44.706" rx="2.34648" ry="2.35294" fill="#C2C2C2"></ellipse> <ellipse cx="58.6622" cy="30.5883" rx="2.34648" ry="2.35294" fill="#C2C2C2"></ellipse> <ellipse cx="72.7413" cy="30.5883" rx="2.34648" ry="2.35294" fill="#C2C2C2"></ellipse> <ellipse cx="86.8199" cy="44.706" rx="2.34648" ry="2.35294" fill="#C2C2C2"></ellipse> <ellipse cx="100.899" cy="44.706" rx="2.34648" ry="2.35294" fill="#C2C2C2"></ellipse> <ellipse cx="86.8199" cy="30.5883" rx="2.34648" ry="2.35294" fill="#C2C2C2"></ellipse> <ellipse cx="100.899" cy="30.5883" rx="2.34648" ry="2.35294" fill="#C2C2C2"></ellipse> <ellipse cx="114.978" cy="44.706" rx="2.34648" ry="2.35294" fill="#C2C2C2"></ellipse> <ellipse cx="129.057" cy="44.706" rx="2.34648" ry="2.35294" fill="#C2C2C2"></ellipse> <ellipse cx="114.978" cy="30.5883" rx="2.34648" ry="2.35294" fill="#C2C2C2"></ellipse> <ellipse cx="129.057" cy="30.5883" rx="2.34648" ry="2.35294" fill="#C2C2C2"></ellipse> <ellipse cx="143.136" cy="44.706" rx="2.34648" ry="2.35294" fill="#C2C2C2"></ellipse> <ellipse cx="157.215" cy="44.706" rx="2.34648" ry="2.35294" fill="#C2C2C2"></ellipse> <ellipse cx="143.136" cy="30.5883" rx="2.34648" ry="2.35294" fill="#C2C2C2"></ellipse> <ellipse cx="157.214" cy="30.5883" rx="2.34648" ry="2.35294" fill="#C2C2C2"></ellipse> <ellipse cx="2.34673" cy="72.9413" rx="2.34648" ry="2.35294" fill="#C2C2C2"></ellipse> <ellipse cx="16.4256" cy="72.9413" rx="2.34648" ry="2.35294" fill="#C2C2C2"></ellipse> <ellipse cx="2.34673" cy="58.8236" rx="2.34648" ry="2.35294" fill="#C2C2C2"></ellipse> <ellipse cx="16.4256" cy="58.8236" rx="2.34648" ry="2.35294" fill="#C2C2C2"></ellipse> <ellipse cx="30.5044" cy="72.9413" rx="2.34648" ry="2.35294" fill="#C2C2C2"></ellipse> <ellipse cx="44.5833" cy="72.9413" rx="2.34648" ry="2.35294" fill="#C2C2C2"></ellipse> <ellipse cx="30.5044" cy="58.8236" rx="2.34648" ry="2.35294" fill="#C2C2C2"></ellipse> <ellipse cx="44.5833" cy="58.8236" rx="2.34648" ry="2.35294" fill="#C2C2C2"></ellipse> <ellipse cx="58.6622" cy="72.9413" rx="2.34648" ry="2.35294" fill="#C2C2C2"></ellipse> <ellipse cx="72.7413" cy="72.9413" rx="2.34648" ry="2.35294" fill="#C2C2C2"></ellipse> <ellipse cx="58.6622" cy="58.8236" rx="2.34648" ry="2.35294" fill="#C2C2C2"></ellipse> <ellipse cx="72.741" cy="58.8236" rx="2.34648" ry="2.35294" fill="#C2C2C2"></ellipse> <ellipse cx="86.8199" cy="72.9408" rx="2.34648" ry="2.35294" fill="#C2C2C2"></ellipse> <ellipse cx="100.899" cy="72.9413" rx="2.34648" ry="2.35294" fill="#C2C2C2"></ellipse> <ellipse cx="86.8199" cy="58.8236" rx="2.34648" ry="2.35294" fill="#C2C2C2"></ellipse> <ellipse cx="100.899" cy="58.8236" rx="2.34648" ry="2.35294" fill="#C2C2C2"></ellipse> <ellipse cx="114.978" cy="72.9413" rx="2.34648" ry="2.35294" fill="#C2C2C2"></ellipse> <ellipse cx="129.057" cy="72.9413" rx="2.34648" ry="2.35294" fill="#C2C2C2"></ellipse> <ellipse cx="114.978" cy="58.8236" rx="2.34648" ry="2.35294" fill="#C2C2C2"></ellipse> <ellipse cx="129.057" cy="58.8236" rx="2.34648" ry="2.35294" fill="#C2C2C2"></ellipse> <ellipse cx="143.136" cy="72.9411" rx="2.34648" ry="2.35294" fill="#C2C2C2"></ellipse> <ellipse cx="157.214" cy="72.9411" rx="2.34648" ry="2.35294" fill="#C2C2C2"></ellipse> <ellipse cx="143.136" cy="58.8236" rx="2.34648" ry="2.35294" fill="#C2C2C2"></ellipse> <ellipse cx="157.214" cy="58.8234" rx="2.34648" ry="2.35294" fill="#C2C2C2"></ellipse> <ellipse cx="2.34648" cy="101.176" rx="2.34648" ry="2.35294" fill="#C2C2C2"></ellipse> <ellipse cx="16.4253" cy="101.176" rx="2.34648" ry="2.35294" fill="#C2C2C2"></ellipse> <ellipse cx="2.34648" cy="87.0587" rx="2.34648" ry="2.35294" fill="#C2C2C2"></ellipse> <ellipse cx="16.4253" cy="87.0587" rx="2.34648" ry="2.35294" fill="#C2C2C2"></ellipse> <ellipse cx="30.5044" cy="101.176" rx="2.34648" ry="2.35294" fill="#C2C2C2"></ellipse> <ellipse cx="44.5833" cy="101.176" rx="2.34648" ry="2.35294" fill="#C2C2C2"></ellipse> <ellipse cx="30.5044" cy="87.0587" rx="2.34648" ry="2.35294" fill="#C2C2C2"></ellipse> <ellipse cx="44.5833" cy="87.0587" rx="2.34648" ry="2.35294" fill="#C2C2C2"></ellipse> <ellipse cx="58.6622" cy="101.177" rx="2.34648" ry="2.35294" fill="#C2C2C2"></ellipse> <ellipse cx="72.7413" cy="101.177" rx="2.34648" ry="2.35294" fill="#C2C2C2"></ellipse> <ellipse cx="58.6622" cy="87.0592" rx="2.34648" ry="2.35294" fill="#C2C2C2"></ellipse> <ellipse cx="72.741" cy="87.059" rx="2.34648" ry="2.35294" fill="#C2C2C2"></ellipse> <ellipse cx="86.8199" cy="101.176" rx="2.34648" ry="2.35294" fill="#C2C2C2"></ellipse> <ellipse cx="100.899" cy="101.176" rx="2.34648" ry="2.35294" fill="#C2C2C2"></ellipse> <ellipse cx="86.8199" cy="87.0587" rx="2.34648" ry="2.35294" fill="#C2C2C2"></ellipse> <ellipse cx="100.899" cy="87.0587" rx="2.34648" ry="2.35294" fill="#C2C2C2"></ellipse> <ellipse cx="114.978" cy="101.176" rx="2.34648" ry="2.35294" fill="#C2C2C2"></ellipse> <ellipse cx="129.057" cy="101.176" rx="2.34648" ry="2.35294" fill="#C2C2C2"></ellipse> <ellipse cx="114.978" cy="87.0587" rx="2.34648" ry="2.35294" fill="#C2C2C2"></ellipse> <ellipse cx="129.057" cy="87.0587" rx="2.34648" ry="2.35294" fill="#C2C2C2"></ellipse> <ellipse cx="143.136" cy="101.176" rx="2.34648" ry="2.35294" fill="#C2C2C2"></ellipse> <ellipse cx="157.214" cy="101.176" rx="2.34648" ry="2.35294" fill="#C2C2C2"></ellipse> <ellipse cx="143.136" cy="87.0587" rx="2.34648" ry="2.35294" fill="#C2C2C2"></ellipse> <ellipse cx="157.214" cy="87.0587" rx="2.34648" ry="2.35294" fill="#C2C2C2"></ellipse> <ellipse cx="2.34673" cy="129.412" rx="2.34648" ry="2.35294" fill="#C2C2C2"></ellipse> <ellipse cx="16.4256" cy="129.412" rx="2.34648" ry="2.35294" fill="#C2C2C2"></ellipse> <ellipse cx="2.34697" cy="115.294" rx="2.34648" ry="2.35294" fill="#C2C2C2"></ellipse> <ellipse cx="16.4256" cy="115.294" rx="2.34648" ry="2.35294" fill="#C2C2C2"></ellipse> <ellipse cx="30.5044" cy="129.412" rx="2.34648" ry="2.35294" fill="#C2C2C2"></ellipse> <ellipse cx="44.5833" cy="129.412" rx="2.34648" ry="2.35294" fill="#C2C2C2"></ellipse> <ellipse cx="30.5044" cy="115.294" rx="2.34648" ry="2.35294" fill="#C2C2C2"></ellipse> <ellipse cx="44.5833" cy="115.294" rx="2.34648" ry="2.35294" fill="#C2C2C2"></ellipse> <ellipse cx="58.6622" cy="129.412" rx="2.34648" ry="2.35294" fill="#C2C2C2"></ellipse> <ellipse cx="72.7413" cy="129.412" rx="2.34648" ry="2.35294" fill="#C2C2C2"></ellipse> <ellipse cx="58.6622" cy="115.294" rx="2.34648" ry="2.35294" fill="#C2C2C2"></ellipse> <ellipse cx="72.741" cy="115.294" rx="2.34648" ry="2.35294" fill="#C2C2C2"></ellipse> <ellipse cx="86.8199" cy="129.412" rx="2.34648" ry="2.35294" fill="#C2C2C2"></ellipse> <ellipse cx="100.899" cy="129.412" rx="2.34648" ry="2.35294" fill="#C2C2C2"></ellipse> <ellipse cx="86.8199" cy="115.294" rx="2.34648" ry="2.35294" fill="#C2C2C2"></ellipse> <ellipse cx="100.899" cy="115.294" rx="2.34648" ry="2.35294" fill="#C2C2C2"></ellipse> <ellipse cx="114.978" cy="129.412" rx="2.34648" ry="2.35294" fill="#C2C2C2"></ellipse> <ellipse cx="129.057" cy="129.412" rx="2.34648" ry="2.35294" fill="#C2C2C2"></ellipse> <ellipse cx="114.978" cy="115.294" rx="2.34648" ry="2.35294" fill="#C2C2C2"></ellipse> <ellipse cx="129.057" cy="115.294" rx="2.34648" ry="2.35294" fill="#C2C2C2"></ellipse> <ellipse cx="143.136" cy="129.412" rx="2.34648" ry="2.35294" fill="#C2C2C2"></ellipse> <ellipse cx="157.214" cy="129.412" rx="2.34648" ry="2.35294" fill="#C2C2C2"></ellipse> <ellipse cx="143.136" cy="115.294" rx="2.34648" ry="2.35294" fill="#C2C2C2"></ellipse> <ellipse cx="157.214" cy="115.294" rx="2.34648" ry="2.35294" fill="#C2C2C2"></ellipse> <ellipse cx="2.34648" cy="157.647" rx="2.34648" ry="2.35294" fill="#C2C2C2"></ellipse> <ellipse cx="16.4256" cy="157.647" rx="2.34648" ry="2.35294" fill="#C2C2C2"></ellipse> <ellipse cx="2.34648" cy="143.53" rx="2.34648" ry="2.35294" fill="#C2C2C2"></ellipse> <ellipse cx="16.4256" cy="143.529" rx="2.34648" ry="2.35294" fill="#C2C2C2"></ellipse> <ellipse cx="30.5044" cy="157.647" rx="2.34648" ry="2.35294" fill="#C2C2C2"></ellipse> <ellipse cx="44.5833" cy="157.647" rx="2.34648" ry="2.35294" fill="#C2C2C2"></ellipse> <ellipse cx="30.5044" cy="143.53" rx="2.34648" ry="2.35294" fill="#C2C2C2"></ellipse> <ellipse cx="44.5833" cy="143.529" rx="2.34648" ry="2.35294" fill="#C2C2C2"></ellipse> <ellipse cx="58.6622" cy="157.647" rx="2.34648" ry="2.35294" fill="#C2C2C2"></ellipse> <ellipse cx="72.741" cy="157.647" rx="2.34648" ry="2.35294" fill="#C2C2C2"></ellipse> <ellipse cx="58.6622" cy="143.53" rx="2.34648" ry="2.35294" fill="#C2C2C2"></ellipse> <ellipse cx="72.741" cy="143.529" rx="2.34648" ry="2.35294" fill="#C2C2C2"></ellipse> <ellipse cx="86.8199" cy="157.647" rx="2.34648" ry="2.35294" fill="#C2C2C2"></ellipse> <ellipse cx="100.899" cy="157.647" rx="2.34648" ry="2.35294" fill="#C2C2C2"></ellipse> <ellipse cx="86.8199" cy="143.53" rx="2.34648" ry="2.35294" fill="#C2C2C2"></ellipse> <ellipse cx="100.899" cy="143.529" rx="2.34648" ry="2.35294" fill="#C2C2C2"></ellipse> <ellipse cx="114.978" cy="157.647" rx="2.34648" ry="2.35294" fill="#C2C2C2"></ellipse> <ellipse cx="129.057" cy="157.647" rx="2.34648" ry="2.35294" fill="#C2C2C2"></ellipse> <ellipse cx="114.978" cy="143.53" rx="2.34648" ry="2.35294" fill="#C2C2C2"></ellipse> <ellipse cx="129.057" cy="143.529" rx="2.34648" ry="2.35294" fill="#C2C2C2"></ellipse> <ellipse cx="143.136" cy="157.647" rx="2.34648" ry="2.35294" fill="#C2C2C2"></ellipse> <ellipse cx="157.214" cy="157.647" rx="2.34648" ry="2.35294" fill="#C2C2C2"></ellipse> <ellipse cx="143.136" cy="143.53" rx="2.34648" ry="2.35294" fill="#C2C2C2"></ellipse> <ellipse cx="157.214" cy="143.529" rx="2.34648" ry="2.35294" fill="#C2C2C2"></ellipse> </svg> 