<?xml version="1.0" encoding="UTF-8"?> <svg xmlns="http://www.w3.org/2000/svg" width="298" height="298" viewBox="0 0 298 298" fill="none"> <ellipse cx="4.37057" cy="30.6763" rx="4.37033" ry="4.38235" fill="#E0E0E0"></ellipse> <ellipse cx="30.5924" cy="30.6763" rx="4.37033" ry="4.38235" fill="#E0E0E0"></ellipse> <ellipse cx="4.37106" cy="4.38235" rx="4.37033" ry="4.38235" fill="#E0E0E0"></ellipse> <ellipse cx="30.5922" cy="4.38235" rx="4.37033" ry="4.38235" fill="#E0E0E0"></ellipse> <ellipse cx="56.8148" cy="30.6763" rx="4.37033" ry="4.38235" fill="#E0E0E0"></ellipse> <ellipse cx="83.0366" cy="30.6763" rx="4.37033" ry="4.38235" fill="#E0E0E0"></ellipse> <ellipse cx="56.8145" cy="4.38235" rx="4.37033" ry="4.38235" fill="#E0E0E0"></ellipse> <ellipse cx="83.0366" cy="4.38235" rx="4.37033" ry="4.38235" fill="#E0E0E0"></ellipse> <ellipse cx="109.258" cy="30.6763" rx="4.37033" ry="4.38235" fill="#E0E0E0"></ellipse> <ellipse cx="135.48" cy="30.6763" rx="4.37033" ry="4.38235" fill="#E0E0E0"></ellipse> <ellipse cx="109.258" cy="4.38235" rx="4.37033" ry="4.38235" fill="#E0E0E0"></ellipse> <ellipse cx="135.48" cy="4.38235" rx="4.37033" ry="4.38235" fill="#E0E0E0"></ellipse> <ellipse cx="161.702" cy="30.6763" rx="4.37033" ry="4.38235" fill="#E0E0E0"></ellipse> <ellipse cx="187.924" cy="30.6763" rx="4.37033" ry="4.38235" fill="#E0E0E0"></ellipse> <ellipse cx="161.702" cy="4.38235" rx="4.37033" ry="4.38235" fill="#E0E0E0"></ellipse> <ellipse cx="187.924" cy="4.38235" rx="4.37033" ry="4.38235" fill="#E0E0E0"></ellipse> <ellipse cx="214.146" cy="30.6763" rx="4.37033" ry="4.38235" fill="#E0E0E0"></ellipse> <ellipse cx="240.368" cy="30.6763" rx="4.37033" ry="4.38235" fill="#E0E0E0"></ellipse> <ellipse cx="214.15" cy="4.38235" rx="4.37033" ry="4.38235" fill="#E0E0E0"></ellipse> <ellipse cx="240.368" cy="4.38235" rx="4.37033" ry="4.38235" fill="#E0E0E0"></ellipse> <ellipse cx="266.59" cy="30.6763" rx="4.37033" ry="4.38235" fill="#E0E0E0"></ellipse> <ellipse cx="292.812" cy="30.6763" rx="4.37033" ry="4.38235" fill="#E0E0E0"></ellipse> <ellipse cx="266.59" cy="4.38235" rx="4.37033" ry="4.38235" fill="#E0E0E0"></ellipse> <ellipse cx="292.812" cy="4.38235" rx="4.37033" ry="4.38235" fill="#E0E0E0"></ellipse> <ellipse cx="4.37033" cy="83.2647" rx="4.37033" ry="4.38235" fill="#E0E0E0"></ellipse> <ellipse cx="30.5922" cy="83.2647" rx="4.37033" ry="4.38235" fill="#E0E0E0"></ellipse> <ellipse cx="4.37033" cy="56.9707" rx="4.37033" ry="4.38235" fill="#E0E0E0"></ellipse> <ellipse cx="30.5922" cy="56.9707" rx="4.37033" ry="4.38235" fill="#E0E0E0"></ellipse> <ellipse cx="56.8145" cy="83.2647" rx="4.37033" ry="4.38235" fill="#E0E0E0"></ellipse> <ellipse cx="83.0362" cy="83.2647" rx="4.37033" ry="4.38235" fill="#E0E0E0"></ellipse> <ellipse cx="56.8145" cy="56.9707" rx="4.37033" ry="4.38235" fill="#E0E0E0"></ellipse> <ellipse cx="83.0362" cy="56.9707" rx="4.37033" ry="4.38235" fill="#E0E0E0"></ellipse> <ellipse cx="109.259" cy="83.2647" rx="4.37033" ry="4.38235" fill="#E0E0E0"></ellipse> <ellipse cx="135.48" cy="83.2647" rx="4.37033" ry="4.38235" fill="#E0E0E0"></ellipse> <ellipse cx="109.258" cy="56.9707" rx="4.37033" ry="4.38235" fill="#E0E0E0"></ellipse> <ellipse cx="135.48" cy="56.9707" rx="4.37033" ry="4.38235" fill="#E0E0E0"></ellipse> <ellipse cx="161.702" cy="83.2647" rx="4.37033" ry="4.38235" fill="#E0E0E0"></ellipse> <ellipse cx="187.924" cy="83.2647" rx="4.37033" ry="4.38235" fill="#E0E0E0"></ellipse> <ellipse cx="161.702" cy="56.9707" rx="4.37033" ry="4.38235" fill="#E0E0E0"></ellipse> <ellipse cx="187.924" cy="56.9707" rx="4.37033" ry="4.38235" fill="#E0E0E0"></ellipse> <ellipse cx="214.146" cy="83.2647" rx="4.37033" ry="4.38235" fill="#E0E0E0"></ellipse> <ellipse cx="240.368" cy="83.2647" rx="4.37033" ry="4.38235" fill="#E0E0E0"></ellipse> <ellipse cx="214.146" cy="56.9707" rx="4.37033" ry="4.38235" fill="#E0E0E0"></ellipse> <ellipse cx="240.368" cy="56.9707" rx="4.37033" ry="4.38235" fill="#E0E0E0"></ellipse> <ellipse cx="266.59" cy="83.2647" rx="4.37033" ry="4.38235" fill="#E0E0E0"></ellipse> <ellipse cx="292.812" cy="83.2647" rx="4.37033" ry="4.38235" fill="#E0E0E0"></ellipse> <ellipse cx="266.59" cy="56.9707" rx="4.37033" ry="4.38235" fill="#E0E0E0"></ellipse> <ellipse cx="292.812" cy="56.9707" rx="4.37033" ry="4.38235" fill="#E0E0E0"></ellipse> <ellipse cx="4.37057" cy="135.853" rx="4.37033" ry="4.38235" fill="#E0E0E0"></ellipse> <ellipse cx="30.5924" cy="135.853" rx="4.37033" ry="4.38235" fill="#E0E0E0"></ellipse> <ellipse cx="4.37069" cy="109.559" rx="4.37033" ry="4.38235" fill="#E0E0E0"></ellipse> <ellipse cx="30.5924" cy="109.559" rx="4.37033" ry="4.38235" fill="#E0E0E0"></ellipse> <ellipse cx="56.8145" cy="135.853" rx="4.37033" ry="4.38235" fill="#E0E0E0"></ellipse> <ellipse cx="83.0362" cy="135.853" rx="4.37033" ry="4.38235" fill="#E0E0E0"></ellipse> <ellipse cx="56.8147" cy="109.559" rx="4.37033" ry="4.38235" fill="#E0E0E0"></ellipse> <ellipse cx="83.0362" cy="109.559" rx="4.37033" ry="4.38235" fill="#E0E0E0"></ellipse> <ellipse cx="109.259" cy="135.853" rx="4.37033" ry="4.38235" fill="#E0E0E0"></ellipse> <ellipse cx="135.48" cy="135.853" rx="4.37033" ry="4.38235" fill="#E0E0E0"></ellipse> <ellipse cx="109.258" cy="109.559" rx="4.37033" ry="4.38235" fill="#E0E0E0"></ellipse> <ellipse cx="135.48" cy="109.559" rx="4.37033" ry="4.38235" fill="#E0E0E0"></ellipse> <ellipse cx="161.702" cy="135.852" rx="4.37033" ry="4.38235" fill="#E0E0E0"></ellipse> <ellipse cx="187.924" cy="135.853" rx="4.37033" ry="4.38235" fill="#E0E0E0"></ellipse> <ellipse cx="161.702" cy="109.559" rx="4.37033" ry="4.38235" fill="#E0E0E0"></ellipse> <ellipse cx="187.924" cy="109.559" rx="4.37033" ry="4.38235" fill="#E0E0E0"></ellipse> <ellipse cx="214.146" cy="135.853" rx="4.37033" ry="4.38235" fill="#E0E0E0"></ellipse> <ellipse cx="240.368" cy="135.853" rx="4.37033" ry="4.38235" fill="#E0E0E0"></ellipse> <ellipse cx="214.146" cy="109.559" rx="4.37033" ry="4.38235" fill="#E0E0E0"></ellipse> <ellipse cx="240.368" cy="109.559" rx="4.37033" ry="4.38235" fill="#E0E0E0"></ellipse> <ellipse cx="266.59" cy="135.852" rx="4.37033" ry="4.38235" fill="#E0E0E0"></ellipse> <ellipse cx="292.812" cy="135.852" rx="4.37033" ry="4.38235" fill="#E0E0E0"></ellipse> <ellipse cx="266.59" cy="109.559" rx="4.37033" ry="4.38235" fill="#E0E0E0"></ellipse> <ellipse cx="292.812" cy="109.558" rx="4.37033" ry="4.38235" fill="#E0E0E0"></ellipse> <ellipse cx="4.37033" cy="188.44" rx="4.37033" ry="4.38235" fill="#E0E0E0"></ellipse> <ellipse cx="30.5922" cy="188.44" rx="4.37033" ry="4.38235" fill="#E0E0E0"></ellipse> <ellipse cx="4.37033" cy="162.147" rx="4.37033" ry="4.38235" fill="#E0E0E0"></ellipse> <ellipse cx="30.5922" cy="162.147" rx="4.37033" ry="4.38235" fill="#E0E0E0"></ellipse> <ellipse cx="56.8143" cy="188.44" rx="4.37033" ry="4.38235" fill="#E0E0E0"></ellipse> <ellipse cx="83.0362" cy="188.44" rx="4.37033" ry="4.38235" fill="#E0E0E0"></ellipse> <ellipse cx="56.8144" cy="162.147" rx="4.37033" ry="4.38235" fill="#E0E0E0"></ellipse> <ellipse cx="83.0362" cy="162.147" rx="4.37033" ry="4.38235" fill="#E0E0E0"></ellipse> <ellipse cx="109.258" cy="188.441" rx="4.37033" ry="4.38235" fill="#E0E0E0"></ellipse> <ellipse cx="135.48" cy="188.441" rx="4.37033" ry="4.38235" fill="#E0E0E0"></ellipse> <ellipse cx="109.258" cy="162.147" rx="4.37033" ry="4.38235" fill="#E0E0E0"></ellipse> <ellipse cx="135.48" cy="162.147" rx="4.37033" ry="4.38235" fill="#E0E0E0"></ellipse> <ellipse cx="161.702" cy="188.44" rx="4.37033" ry="4.38235" fill="#E0E0E0"></ellipse> <ellipse cx="187.924" cy="188.44" rx="4.37033" ry="4.38235" fill="#E0E0E0"></ellipse> <ellipse cx="161.702" cy="162.147" rx="4.37033" ry="4.38235" fill="#E0E0E0"></ellipse> <ellipse cx="187.924" cy="162.147" rx="4.37033" ry="4.38235" fill="#E0E0E0"></ellipse> <ellipse cx="214.146" cy="188.44" rx="4.37033" ry="4.38235" fill="#E0E0E0"></ellipse> <ellipse cx="240.368" cy="188.44" rx="4.37033" ry="4.38235" fill="#E0E0E0"></ellipse> <ellipse cx="214.146" cy="162.147" rx="4.37033" ry="4.38235" fill="#E0E0E0"></ellipse> <ellipse cx="240.368" cy="162.147" rx="4.37033" ry="4.38235" fill="#E0E0E0"></ellipse> <ellipse cx="266.59" cy="188.44" rx="4.37033" ry="4.38235" fill="#E0E0E0"></ellipse> <ellipse cx="292.812" cy="188.44" rx="4.37033" ry="4.38235" fill="#E0E0E0"></ellipse> <ellipse cx="266.59" cy="162.147" rx="4.37033" ry="4.38235" fill="#E0E0E0"></ellipse> <ellipse cx="292.812" cy="162.147" rx="4.37033" ry="4.38235" fill="#E0E0E0"></ellipse> <ellipse cx="4.37057" cy="241.029" rx="4.37033" ry="4.38235" fill="#E0E0E0"></ellipse> <ellipse cx="30.5924" cy="241.029" rx="4.37033" ry="4.38235" fill="#E0E0E0"></ellipse> <ellipse cx="4.37069" cy="214.735" rx="4.37033" ry="4.38235" fill="#E0E0E0"></ellipse> <ellipse cx="30.5924" cy="214.735" rx="4.37033" ry="4.38235" fill="#E0E0E0"></ellipse> <ellipse cx="56.8145" cy="241.029" rx="4.37033" ry="4.38235" fill="#E0E0E0"></ellipse> <ellipse cx="83.0362" cy="241.029" rx="4.37033" ry="4.38235" fill="#E0E0E0"></ellipse> <ellipse cx="56.8147" cy="214.735" rx="4.37033" ry="4.38235" fill="#E0E0E0"></ellipse> <ellipse cx="83.0362" cy="214.735" rx="4.37033" ry="4.38235" fill="#E0E0E0"></ellipse> <ellipse cx="109.258" cy="241.029" rx="4.37033" ry="4.38235" fill="#E0E0E0"></ellipse> <ellipse cx="135.48" cy="241.029" rx="4.37033" ry="4.38235" fill="#E0E0E0"></ellipse> <ellipse cx="109.258" cy="214.735" rx="4.37033" ry="4.38235" fill="#E0E0E0"></ellipse> <ellipse cx="135.48" cy="214.735" rx="4.37033" ry="4.38235" fill="#E0E0E0"></ellipse> <ellipse cx="161.702" cy="241.029" rx="4.37033" ry="4.38235" fill="#E0E0E0"></ellipse> <ellipse cx="187.924" cy="241.029" rx="4.37033" ry="4.38235" fill="#E0E0E0"></ellipse> <ellipse cx="161.702" cy="214.735" rx="4.37033" ry="4.38235" fill="#E0E0E0"></ellipse> <ellipse cx="187.924" cy="214.735" rx="4.37033" ry="4.38235" fill="#E0E0E0"></ellipse> <ellipse cx="214.146" cy="241.029" rx="4.37033" ry="4.38235" fill="#E0E0E0"></ellipse> <ellipse cx="240.368" cy="241.029" rx="4.37033" ry="4.38235" fill="#E0E0E0"></ellipse> <ellipse cx="214.146" cy="214.735" rx="4.37033" ry="4.38235" fill="#E0E0E0"></ellipse> <ellipse cx="240.368" cy="214.735" rx="4.37033" ry="4.38235" fill="#E0E0E0"></ellipse> <ellipse cx="266.59" cy="241.029" rx="4.37033" ry="4.38235" fill="#E0E0E0"></ellipse> <ellipse cx="292.812" cy="241.029" rx="4.37033" ry="4.38235" fill="#E0E0E0"></ellipse> <ellipse cx="266.59" cy="214.735" rx="4.37033" ry="4.38235" fill="#E0E0E0"></ellipse> <ellipse cx="292.812" cy="214.735" rx="4.37033" ry="4.38235" fill="#E0E0E0"></ellipse> <ellipse cx="4.37033" cy="293.617" rx="4.37033" ry="4.38235" fill="#E0E0E0"></ellipse> <ellipse cx="30.5924" cy="293.617" rx="4.37033" ry="4.38235" fill="#E0E0E0"></ellipse> <ellipse cx="4.37033" cy="267.323" rx="4.37033" ry="4.38235" fill="#E0E0E0"></ellipse> <ellipse cx="30.5924" cy="267.323" rx="4.37033" ry="4.38235" fill="#E0E0E0"></ellipse> <ellipse cx="56.8145" cy="293.617" rx="4.37033" ry="4.38235" fill="#E0E0E0"></ellipse> <ellipse cx="83.0362" cy="293.617" rx="4.37033" ry="4.38235" fill="#E0E0E0"></ellipse> <ellipse cx="56.8147" cy="267.323" rx="4.37033" ry="4.38235" fill="#E0E0E0"></ellipse> <ellipse cx="83.0362" cy="267.323" rx="4.37033" ry="4.38235" fill="#E0E0E0"></ellipse> <ellipse cx="109.258" cy="293.617" rx="4.37033" ry="4.38235" fill="#E0E0E0"></ellipse> <ellipse cx="135.48" cy="293.617" rx="4.37033" ry="4.38235" fill="#E0E0E0"></ellipse> <ellipse cx="109.258" cy="267.323" rx="4.37033" ry="4.38235" fill="#E0E0E0"></ellipse> <ellipse cx="135.48" cy="267.323" rx="4.37033" ry="4.38235" fill="#E0E0E0"></ellipse> <ellipse cx="161.702" cy="293.617" rx="4.37033" ry="4.38235" fill="#E0E0E0"></ellipse> <ellipse cx="187.924" cy="293.617" rx="4.37033" ry="4.38235" fill="#E0E0E0"></ellipse> <ellipse cx="161.702" cy="267.323" rx="4.37033" ry="4.38235" fill="#E0E0E0"></ellipse> <ellipse cx="187.924" cy="267.323" rx="4.37033" ry="4.38235" fill="#E0E0E0"></ellipse> <ellipse cx="214.146" cy="293.617" rx="4.37033" ry="4.38235" fill="#E0E0E0"></ellipse> <ellipse cx="240.368" cy="293.617" rx="4.37033" ry="4.38235" fill="#E0E0E0"></ellipse> <ellipse cx="214.146" cy="267.323" rx="4.37033" ry="4.38235" fill="#E0E0E0"></ellipse> <ellipse cx="240.368" cy="267.323" rx="4.37033" ry="4.38235" fill="#E0E0E0"></ellipse> <ellipse cx="266.59" cy="293.617" rx="4.37033" ry="4.38235" fill="#E0E0E0"></ellipse> <ellipse cx="292.812" cy="293.617" rx="4.37033" ry="4.38235" fill="#E0E0E0"></ellipse> <ellipse cx="266.59" cy="267.323" rx="4.37033" ry="4.38235" fill="#E0E0E0"></ellipse> <ellipse cx="292.812" cy="267.323" rx="4.37033" ry="4.38235" fill="#E0E0E0"></ellipse> </svg> 