<?xml version="1.0" encoding="UTF-8"?> <svg xmlns="http://www.w3.org/2000/svg" width="66" height="66" viewBox="0 0 66 66" fill="none"> <path d="M13.6641 23.9766C12.9525 23.9766 12.375 24.5541 12.375 25.2656C12.375 25.9772 12.9525 26.5547 13.6641 26.5547C14.3756 26.5547 14.9531 25.9772 14.9531 25.2656C14.9531 24.5541 14.3756 23.9766 13.6641 23.9766Z" fill="#1E50FF"></path> <path d="M44.6017 26.5547H38.1563V20.1094C38.1563 19.3976 37.5791 18.8203 36.8673 18.8203H29.1328C28.421 18.8203 27.8438 19.3976 27.8438 20.1094V26.5547H21.3984C20.6866 26.5547 20.1094 27.132 20.1094 27.8438V35.5782C20.1094 36.29 20.6866 36.8673 21.3984 36.8673H27.8438V43.3126C27.8438 44.0244 28.421 44.6017 29.1328 44.6017H36.8673C37.5791 44.6017 38.1563 44.0244 38.1563 43.3126V36.8673H44.6017C45.3135 36.8673 45.8907 36.29 45.8907 35.5782V27.8438C45.8907 27.132 45.3135 26.5547 44.6017 26.5547ZM43.3126 34.2891H36.8673C36.1554 34.2891 35.5782 34.8664 35.5782 35.5782V42.0235H30.4219V35.5782C30.4219 34.8664 29.8447 34.2891 29.1328 34.2891H22.6875V29.1329H29.1328C29.8447 29.1329 30.4219 28.5556 30.4219 27.8438V21.3984H35.5782V27.8438C35.5782 28.5556 36.1554 29.1329 36.8673 29.1329H43.3126V34.2891Z" fill="#1E50FF"></path> <path d="M52.8998 3.96272C50.8128 5.31779 48.389 6.03387 45.8905 6.03387C42.0695 6.03387 38.4677 4.35254 36.0088 1.42081C36.0087 1.42081 36.0087 1.42081 36.0087 1.42081C35.2513 0.517947 34.1546 0 32.9999 0C31.8451 0 30.7484 0.517947 29.9909 1.42068C27.532 4.35241 23.9301 6.03374 20.1092 6.03374C17.6107 6.03374 15.1869 5.31753 13.0999 3.96259C10.551 2.30833 7.21851 4.25599 7.21851 7.25835V33.5516C7.21851 39.4002 9.09461 45.1145 12.5008 49.6417C20.9275 60.8462 32.0234 65.6945 32.4916 65.8955C32.6539 65.9651 32.827 66 32.9999 66C33.1727 66 33.346 65.9651 33.5081 65.8955C33.9763 65.6945 45.0722 60.8463 53.4987 49.6432C56.9052 45.1145 58.7812 39.3997 58.7812 33.5516V7.25848C58.7812 4.25586 55.4479 2.30833 52.8998 3.96272ZM51.4384 48.0934C44.4308 57.4102 35.2395 62.2131 32.9991 63.2906C30.7578 62.2157 21.5843 57.4305 14.5612 48.092C11.4887 44.0086 9.79664 38.8449 9.79664 33.5517V7.25848C9.79664 6.27711 10.8796 5.59533 11.696 6.12513C14.202 7.75207 17.1113 8.612 20.1092 8.612C24.6944 8.612 29.0162 6.59487 31.9662 3.07765C32.2363 2.75551 32.6033 2.57814 32.9999 2.57814C33.3964 2.57814 33.7634 2.75551 34.0334 3.07765C36.9836 6.59474 41.3053 8.612 45.8905 8.612C48.8884 8.612 51.7976 7.75207 54.3038 6.12513C55.1068 5.60345 56.2031 6.26229 56.2031 7.25848V33.5516C56.2031 38.8444 54.511 44.0086 51.4384 48.0934Z" fill="#1E50FF"></path> <path d="M53.0798 10.3153C52.7376 10.0737 52.2997 10.0134 51.905 10.1533C49.9656 10.8414 47.9421 11.1902 45.8908 11.1902C41.4598 11.1902 37.1867 9.55448 33.8583 6.58434C33.3694 6.14799 32.6308 6.14799 32.1418 6.58434C28.8136 9.55448 24.5403 11.1902 20.1094 11.1902C18.0581 11.1902 16.0345 10.8414 14.0951 10.1533C13.7002 10.0134 13.2625 10.0737 12.9204 10.3153C12.5785 10.5569 12.3751 10.9495 12.3751 11.3682V20.1094C12.3751 20.8212 12.9524 21.3984 13.6642 21.3984C14.376 21.3984 14.9533 20.8212 14.9533 20.1094V13.1106C16.6365 13.5476 18.3641 13.7684 20.1095 13.7684C24.8011 13.7684 29.336 12.1657 33.0002 9.23338C36.6644 12.1657 41.1993 13.7684 45.8909 13.7684C47.6363 13.7684 49.3639 13.5476 51.0472 13.1106V33.5518C51.0472 37.7349 49.7229 41.7972 47.3174 44.991C42.443 51.4744 36.4896 55.489 33.0123 57.4655C29.5076 55.4631 23.5159 51.4181 18.6825 44.993C16.2777 41.7973 14.9531 37.734 14.9531 33.5516V30.4218C14.9531 29.71 14.3759 29.1327 13.6641 29.1327C12.9522 29.1327 12.375 29.71 12.375 30.4218V33.5516C12.375 38.2897 13.8835 42.9036 16.6223 46.543C22.043 53.7491 28.8274 58.1124 32.3889 60.0719C32.5824 60.1782 32.7963 60.2315 33.0103 60.2315C33.223 60.2315 33.4359 60.1789 33.6285 60.0736C37.1626 58.142 43.9082 53.8154 49.3773 46.5411C52.1164 42.9038 53.625 38.2909 53.625 33.5516V11.3681C53.625 10.9494 53.4216 10.5569 53.0798 10.3153Z" fill="#1E50FF"></path> </svg> 