<?xml version="1.0" encoding="UTF-8"?> <svg xmlns="http://www.w3.org/2000/svg" width="80" height="80" viewBox="0 0 80 80" fill="none"> <g clip-path="url(#clip0)"> <path d="M79.8386 30.747C79.4386 29.5166 78.39 28.6778 77.1014 28.5583L52.6428 26.2898L47.7945 15.0314C47.5384 14.437 46.8494 14.1623 46.2549 14.4186C45.6605 14.6745 45.3861 15.3639 45.642 15.9581L50.7656 27.8556C50.9353 28.2495 51.3067 28.5194 51.7338 28.5589L76.8852 30.8916C77.3842 30.9378 77.5581 31.3122 77.6099 31.4709C77.6614 31.6297 77.7408 32.0347 77.3642 32.3655L58.3872 49.0367C58.0649 49.3198 57.9231 49.7562 58.0175 50.1748L63.5714 74.8159C63.6816 75.305 63.3794 75.5861 63.2441 75.6842C63.1091 75.7823 62.7488 75.9834 62.3174 75.727L40.5981 62.8306C40.2295 62.6119 39.7702 62.6119 39.4017 62.8306L17.6825 75.727C17.2513 75.9836 16.8909 75.7823 16.7558 75.6842C16.6206 75.5861 16.3183 75.305 16.4284 74.8161L19.2953 62.0964C19.4377 61.465 19.0411 60.8378 18.4099 60.6956C17.7775 60.5534 17.1514 60.9498 17.0091 61.5811L14.1422 74.3009C13.8578 75.5631 14.3314 76.8197 15.3781 77.5803C16.4249 78.3406 17.7664 78.403 18.8788 77.7423L39.9997 65.2009L61.1206 77.7423C61.6331 78.0466 62.1941 78.1975 62.7524 78.1975C63.4063 78.1975 64.0566 77.9905 64.6211 77.5803C65.668 76.8197 66.1414 75.5633 65.857 74.3008L60.4563 50.3383L78.9108 34.1266C79.883 33.2725 80.2383 31.9777 79.8386 30.747Z" fill="#FFDE33"></path> <path d="M45.6408 10.0305L42.9272 3.72924C42.4153 2.5408 41.2938 1.80267 39.9997 1.80267C38.7059 1.80267 37.5842 2.54095 37.0724 3.72939L27.3567 26.29L2.89861 28.5583C1.61033 28.6778 0.561419 29.5164 0.161419 30.747C-0.238425 31.9775 0.117044 33.2725 1.08923 34.1266L19.5433 50.3383L18.1385 56.5714C17.9961 57.2028 18.3927 57.83 19.0239 57.9722C19.1108 57.9917 19.1974 58.0013 19.2827 58.0013C19.8186 58.0013 20.302 57.6314 20.4247 57.0867L21.9825 50.1747C22.0769 49.7561 21.935 49.3195 21.6128 49.0366L2.63595 32.3658C2.25939 32.035 2.33876 31.63 2.39048 31.4713C2.44204 31.3125 2.61579 30.9381 3.11501 30.8919L28.2663 28.5592C28.6933 28.5197 29.0647 28.2499 29.2344 27.856L39.225 4.65642C39.4233 4.19611 39.833 4.14627 39.9999 4.14627C40.1669 4.14627 40.5766 4.19595 40.7749 4.65627L43.4884 10.9574C43.7447 11.5517 44.4338 11.8263 45.0281 11.5702C45.6224 11.3142 45.8967 10.6249 45.6408 10.0305Z" fill="#FFDE33"></path> </g> <defs> <clipPath id="clip0"> <rect width="80" height="80" fill="white"></rect> </clipPath> </defs> </svg> 