<?xml version="1.0" encoding="UTF-8"?> <svg xmlns="http://www.w3.org/2000/svg" width="80" height="80" viewBox="0 0 80 80" fill="none"> <path d="M68.2961 25.017C68.9186 23.4892 69.2333 21.8736 69.2333 20.1991C69.2333 19.8595 69.2198 19.5164 69.1933 19.1797C69.1439 18.5528 68.5953 18.0852 67.9689 18.1341C67.3422 18.1834 66.8739 18.7316 66.9233 19.3584C66.945 19.6361 66.9562 19.9189 66.9562 20.1991C66.9562 21.9028 66.5603 23.5322 65.7793 25.0419C65.6334 25.3236 65.612 25.6534 65.7198 25.9519C65.8276 26.2503 66.0551 26.4902 66.3473 26.6136C70.7933 28.4928 73.6661 32.8256 73.6661 37.6519C73.6661 44.0681 68.6453 49.3206 62.2358 49.6097C61.7431 49.6319 61.3208 49.9688 61.1897 50.4441C60.3412 53.5173 56.9325 55.748 53.0847 55.748C51.2512 55.748 49.5025 55.26 48.062 54.3591L51.8236 48.4231C52.0872 48.0072 52.2225 47.5461 52.2365 47.0867C52.2598 46.3211 51.9461 45.5605 51.327 45.0219C50.2797 44.1106 48.6953 44.1708 47.7198 45.1583L44.8972 48.0159L45.8175 41.1987C45.9147 40.478 45.7067 39.7416 45.2468 39.1783C44.8445 38.6853 44.2737 38.355 43.6512 38.2472C43.5623 38.2319 43.4723 38.2209 43.3817 38.2148L42.3648 38.1461C41.8589 38.1117 41.375 38.2219 40.9556 38.443C40.2565 38.8114 39.7361 39.4886 39.5897 40.3202L38.6993 45.3788L37.809 50.4372L32.3118 43.6767C32.1295 43.4525 31.9145 43.2645 31.6781 43.1156C31.6767 43.1147 31.6753 43.1136 31.6739 43.1127C31.6484 43.0967 31.6217 43.083 31.5957 43.0678C31.2575 42.8714 30.8803 42.7503 30.4923 42.7159C30.48 42.7148 30.4673 42.715 30.455 42.7141C30.3978 42.7098 30.3406 42.7063 30.2831 42.7056C29.9328 42.7022 29.579 42.7683 29.244 42.9092L28.1817 43.3558C27.4762 43.6522 26.9351 44.2394 26.697 44.9666C26.4589 45.6939 26.5481 46.4873 26.9418 47.1437L31.4415 54.6437C30.0993 55.3606 28.5279 55.7481 26.9168 55.7481C23.0689 55.7481 19.6603 53.5175 18.8118 50.4444C18.6806 49.9689 18.2582 49.6322 17.7657 49.61C11.3562 49.3209 6.33543 44.0684 6.33543 37.652C6.33543 32.8256 9.20824 28.4928 13.6542 26.6138C13.9464 26.4903 14.1739 26.2505 14.2817 25.952C14.3895 25.6536 14.3679 25.3237 14.2221 25.042C13.4412 23.5323 13.0453 21.903 13.0453 20.1992C13.0453 14.3766 17.7825 9.63938 23.6051 9.63938C25.2281 9.63938 26.7862 9.99875 28.2359 10.7075C28.5395 10.8561 28.8936 10.8619 29.2022 10.7234C29.5104 10.585 29.7415 10.3167 29.8325 9.99109C31.1009 5.44938 35.2825 2.27734 40.0011 2.27734C44.7197 2.27734 48.9012 5.44938 50.1697 9.99109C50.2607 10.3167 50.4917 10.5852 50.8 10.7234C51.1084 10.862 51.4626 10.8562 51.7662 10.7075C53.2159 9.99875 54.774 9.63938 56.397 9.63938C60.2893 9.63938 63.8548 11.7705 65.7018 15.2013C65.9998 15.7548 66.6904 15.962 67.244 15.6639C67.7978 15.3659 68.0048 14.6753 67.7067 14.1217C65.4618 9.95234 61.1283 7.36234 56.397 7.36234C54.8597 7.36234 53.37 7.62781 51.9526 8.15312C50.0459 3.29422 45.3022 0 40.0003 0C34.6986 0 29.9547 3.29422 28.0487 8.15297C26.6314 7.62766 25.1417 7.36219 23.6043 7.36219C16.5259 7.36219 10.7673 13.1208 10.7673 20.1991C10.7673 21.8736 11.082 23.4894 11.7045 25.017C7.02293 27.4628 4.05762 32.3025 4.05762 37.6519C4.05762 45.0236 9.62496 51.1045 16.8731 51.8273C18.2981 55.5141 22.3028 58.025 26.9161 58.025C28.9386 58.025 30.9192 57.5228 32.6125 56.5966L33.1767 57.5369C33.9464 58.82 34.265 60.3397 34.0736 61.8164C33.9079 63.0931 33.704 64.5966 33.4454 66.0681C33.3367 66.6875 33.7506 67.2777 34.3698 67.3864C34.99 67.4953 35.5793 67.0812 35.6881 66.462C35.9545 64.9459 36.1629 63.4109 36.3317 62.1089C36.5887 60.1259 36.1618 58.0861 35.1293 56.3653L28.8939 45.972C28.8201 45.8492 28.8412 45.733 28.8604 45.6745C28.8795 45.6161 28.9314 45.51 29.0632 45.4545L30.1257 45.008C30.272 44.9464 30.4445 44.9895 30.5447 45.1128L36.6126 52.5753C36.6287 52.595 36.6457 52.6134 36.6625 52.6323C36.8879 52.8886 37.1684 53.0728 37.4767 53.1739C37.8042 53.2814 38.162 53.2955 38.5159 53.2059C38.5198 53.205 38.5237 53.2044 38.5278 53.2033C38.5278 53.2033 38.5278 53.2033 38.5279 53.2033H38.5281C38.872 53.1139 39.1711 52.9355 39.4037 52.6941C39.4128 52.6845 39.4226 52.6756 39.4315 52.6661C39.4397 52.6572 39.4472 52.6477 39.4551 52.6386C39.6782 52.3869 39.8329 52.0737 39.8946 51.7227L41.832 40.715C41.864 40.5331 42.0311 40.4061 42.2111 40.418L43.2281 40.4867C43.3636 40.4959 43.4459 40.5731 43.4828 40.6184C43.5197 40.6636 43.5789 40.7595 43.5606 40.8944L42.4751 48.9364C42.4617 49.0359 42.4564 49.135 42.4589 49.233C42.4757 49.9188 42.8701 50.5489 43.5006 50.8586C43.5456 50.8808 43.5912 50.9009 43.6373 50.9191C43.8675 51.0103 44.109 51.0531 44.3482 51.0498C44.8267 51.0433 45.2962 50.8525 45.6487 50.4955L49.3397 46.7586C49.4034 46.6941 49.4864 46.6592 49.5711 46.6534C49.5748 46.6531 49.5784 46.6522 49.5822 46.652C49.584 46.652 49.5859 46.6523 49.5878 46.6523C49.6525 46.6509 49.7175 46.6663 49.7754 46.6995C49.7953 46.7109 49.8143 46.7244 49.8323 46.74C49.9675 46.8577 49.9959 47.0531 49.9001 47.2045L44.8881 55.1133C43.8354 56.7745 43.3493 58.7722 43.5196 60.7381C43.9965 66.2458 44.8229 72.4559 48.414 77.723H31.579C32.864 75.8173 33.8625 73.6494 34.609 71.1537C34.7892 70.5514 34.447 69.9169 33.8445 69.7367C33.2418 69.5566 32.6075 69.8988 32.4275 70.5013C31.5168 73.5453 30.2056 76.0377 28.4186 78.1202C28.129 78.4577 28.0625 78.933 28.2482 79.337C28.434 79.7411 28.8379 80 29.2826 80H50.7178C51.1625 80 51.5665 79.7411 51.7522 79.337C51.9379 78.933 51.8714 78.4577 51.5818 78.1203C47.1976 73.01 46.2923 66.367 45.7878 60.5417C45.6604 59.0697 46.0237 57.5745 46.8111 56.3322L46.8429 56.2817C48.6465 57.412 50.819 58.0252 53.0842 58.0252C57.6975 58.0252 61.7022 55.5142 63.1272 51.8273C70.3753 51.1045 75.9426 45.0236 75.9426 37.652C75.9429 32.3025 72.9776 27.4628 68.2961 25.017Z" fill="#048719"></path> </svg> 