<?xml version="1.0" encoding="UTF-8"?> <svg xmlns="http://www.w3.org/2000/svg" width="53" height="53" viewBox="0 0 53 53" fill="none"> <g clip-path="url(#clip0)"> <path d="M52.9838 24.2914C52.8731 22.8549 52.2238 21.5713 51.1555 20.677C50.1555 19.8398 48.8989 19.4496 47.6168 19.5782C45.8682 19.7536 44.3281 20.8975 43.5689 22.5442L41.9797 22.6845L40.4113 22.2449C40.2894 22.2107 40.1911 22.1142 40.1482 21.9867C39.6924 20.6307 39.0419 19.3503 38.213 18.1775L38.7681 16.6851L40.5199 14.7903C41.5163 14.7569 42.4429 14.3177 43.1074 13.5518C44.3097 12.166 44.2597 10.0422 42.9934 8.71677C42.2984 7.98941 41.3623 7.59072 40.361 7.60144C39.3724 7.6095 38.4206 8.03025 37.7497 8.75602C37.0925 9.46683 36.756 10.394 36.7978 11.3483L35.0457 13.2434L33.5776 13.9244C31.3879 12.6445 28.9013 11.9522 26.3579 11.9153L25.398 10.3844L25.0595 8.70213C26.4082 7.59931 27.0384 5.88637 26.678 4.1989C26.1371 1.66662 23.5295 0.0171245 20.8657 0.522434C19.5245 0.776627 18.3834 1.52244 17.6525 2.62218C16.9679 3.65243 16.7315 4.87809 16.9868 6.07331C17.3272 7.66689 18.4824 8.95239 20.054 9.52592L20.428 11.3844L20.1305 13.1959C18.7755 13.802 17.5259 14.6055 16.4063 15.5904L15.3059 15.3943L14.0625 14.4563C13.8848 13.512 13.3397 12.6806 12.5298 12.1372C11.0184 11.123 8.98589 11.4004 7.80213 12.7825C7.14776 13.5465 6.84689 14.5163 6.95499 15.5129C7.06162 16.4958 7.57531 17.4008 8.3643 17.9961C9.18014 18.6115 10.2177 18.8463 11.2108 18.6554L12.2527 19.4415L12.7201 20.3978C12.7408 20.4401 12.7413 20.4889 12.7217 20.5315C11.8304 22.4695 11.3785 24.5385 11.3785 26.6811C11.3785 27.0777 11.395 27.4808 11.4274 27.8793C11.4323 27.9408 11.408 27.997 11.3622 28.0296L9.6027 29.2833L7.5944 29.9151C6.36131 28.961 4.73081 28.6728 3.23005 29.1688C3.20002 29.1788 3.17042 29.1895 3.14093 29.2004L3.11611 29.2095C2.70267 29.3585 2.48826 29.8144 2.63711 30.2278C2.78595 30.6411 3.24161 30.8558 3.65536 30.7068L3.6926 30.6932C3.70512 30.6887 3.71764 30.6839 3.73005 30.6797C4.82607 30.3173 6.02702 30.5869 6.86439 31.3831C7.01451 31.5258 7.21152 31.6021 7.41267 31.6021C7.49245 31.6021 7.57297 31.5901 7.65137 31.5654L10.2005 30.7635C10.2802 30.7384 10.3554 30.701 10.4235 30.6525L12.2856 29.3257C12.7849 28.9701 13.0638 28.3663 13.0135 27.7501C12.9847 27.3943 12.9699 27.0347 12.9699 26.681C12.9699 24.7695 13.3728 22.9242 14.1676 21.1963C14.3875 20.7179 14.3811 20.1722 14.15 19.6991L13.5989 18.5715C13.544 18.459 13.4632 18.3611 13.3633 18.2857L11.8654 17.1556C11.6589 16.9999 11.3896 16.9542 11.1436 17.0331C10.5223 17.2321 9.84172 17.1171 9.32283 16.7257C8.87651 16.389 8.5976 15.8973 8.53723 15.3412C8.47697 14.7857 8.64523 14.2446 9.01092 13.8176C9.65914 13.0609 10.8154 12.9031 11.6434 13.4586C12.1538 13.8012 12.4758 14.3479 12.5271 14.959C12.546 15.1846 12.66 15.3915 12.8408 15.5278L14.4998 16.7794C14.5998 16.8549 14.7162 16.9056 14.8394 16.9275L16.511 17.2254C16.757 17.2694 17.0089 17.1951 17.1918 17.0254C18.3563 15.9447 19.6874 15.092 21.1481 14.4907C21.4033 14.3857 21.5857 14.1561 21.6304 13.8839L22.0221 11.499C22.0377 11.4041 22.0359 11.3073 22.017 11.2131L21.5214 8.75019C21.4613 8.45112 21.2354 8.21273 20.94 8.13666C19.7095 7.81966 18.7912 6.90166 18.5434 5.74114C18.3783 4.96837 18.5328 4.17354 18.9783 3.50305C19.4701 2.76307 20.2458 2.25977 21.1625 2.086C22.9844 1.74099 24.7605 2.83765 25.1222 4.53128C25.3811 5.74411 24.8416 6.98484 23.7474 7.69225C23.473 7.86974 23.335 8.19703 23.3995 8.51742L23.867 10.8408C23.886 10.935 23.9219 11.025 23.9729 11.1065L25.1222 12.9398C25.3441 13.2938 25.7259 13.5052 26.1456 13.5052H26.146C28.5409 13.5052 30.8879 14.1578 32.9334 15.3927C33.2763 15.5997 33.6971 15.6232 34.0591 15.4554L35.8581 14.6209C35.9523 14.5772 36.0371 14.5155 36.1075 14.4393L38.2081 12.1673C38.373 11.989 38.4474 11.7453 38.4102 11.5054C38.3159 10.896 38.5011 10.2877 38.9184 9.83645C39.2979 9.42598 39.815 9.19746 40.3743 9.19279C40.9315 9.19269 41.4547 9.40954 41.8431 9.81618C42.5481 10.554 42.5756 11.7368 41.9056 12.509C41.4855 12.9932 40.8776 13.2431 40.2376 13.1951C39.9956 13.1767 39.7583 13.2702 39.5937 13.4484L37.4931 15.7204C37.4225 15.7966 37.3677 15.8859 37.3315 15.9832L36.6486 17.8194C36.5082 18.1968 36.5667 18.6174 36.8048 18.9444C37.5963 20.0319 38.2137 21.226 38.6399 22.4939C38.8507 23.1212 39.3524 23.6011 39.9821 23.7775L41.6904 24.2563C41.783 24.2823 41.8794 24.2911 41.9752 24.2827L44.1939 24.0868C44.506 24.0592 44.7728 23.8511 44.8756 23.5551C45.335 22.2319 46.4734 21.2924 47.7759 21.1618C48.6277 21.0763 49.4656 21.3376 50.1344 21.8975C50.8714 22.5145 51.3201 23.4082 51.3975 24.4138C51.4487 25.0784 51.3286 25.7457 51.0502 26.3437C50.8647 26.7421 51.0372 27.2154 51.4357 27.4009C51.8343 27.5864 52.3075 27.4139 52.4929 27.0154C52.886 26.1698 53.0558 25.228 52.9838 24.2914Z" fill="#048719"></path> <path d="M48.9793 28.2313C48.7559 28.3048 48.5255 28.3538 48.2945 28.3771C46.9175 28.5149 45.6305 27.7524 45.0145 26.434C44.8728 26.131 44.5566 25.9487 44.2235 25.9784L42.1408 26.1623C42.045 26.1708 41.9516 26.1965 41.865 26.2383L40.2929 26.9967C39.6973 27.284 39.2863 27.8516 39.1937 28.5149C39.0558 29.5019 38.8044 30.4732 38.4468 31.4018C38.2333 31.9562 38.2756 32.5686 38.5628 33.082L39.1227 34.0833C39.1838 34.1925 39.2699 34.2859 39.3739 34.3556L40.9322 35.401C41.1468 35.5451 41.4183 35.5758 41.6598 35.4835C42.2688 35.2504 42.9548 35.3274 43.4947 35.6896C43.9588 36.001 44.2647 36.4765 44.3557 37.0283C44.4467 37.5796 44.3087 38.1292 43.9671 38.5759C43.3618 39.3675 42.2162 39.5891 41.3587 39.0801C40.8301 38.7664 40.4781 38.2382 40.3931 37.6309C40.3617 37.4068 40.2363 37.2066 40.0483 37.0805L38.3225 35.9227C38.2185 35.8529 38.0995 35.8086 37.9752 35.7936L36.889 35.6615C36.2814 35.5874 35.6756 35.7902 35.2274 36.2174C34.3574 37.0463 33.3806 37.7523 32.324 38.3158C31.7095 38.6434 31.3004 39.2827 31.2565 39.9839L31.1187 42.1847C31.1136 42.2667 31.1211 42.3491 31.1413 42.4288L31.8242 45.139C31.8939 45.4158 32.1066 45.634 32.3814 45.7108C33.308 45.97 34.0294 46.7092 34.264 47.6399C34.4425 48.3486 34.3296 49.0817 33.9459 49.704C33.5625 50.3261 32.9576 50.7563 32.2426 50.9155C30.9098 51.2125 29.5345 50.4297 29.1122 49.1336C28.7933 48.1545 29.0509 47.099 29.7843 46.3788C29.986 46.1809 30.0674 45.8907 29.9984 45.6167L29.3112 42.89C29.2912 42.8103 29.2588 42.7341 29.2154 42.6643L28.1561 40.9604C27.7268 40.2696 26.9788 39.8575 26.1471 39.8575C26.1466 39.8575 26.146 39.8575 26.1454 39.8575C25.285 39.8575 24.4236 39.7733 23.5851 39.6074C22.7858 39.4491 21.9775 39.7044 21.4229 40.2897L20.0223 41.7677C19.9657 41.8275 19.9187 41.8955 19.883 41.9695L18.3152 45.2224C18.209 45.4427 18.21 45.6998 18.318 45.9192C18.5927 46.4772 18.5959 47.1175 18.3267 47.6759C18.0838 48.1799 17.6558 48.55 17.1217 48.7179C16.5881 48.8858 16.024 48.826 15.5335 48.55C14.6706 48.0644 14.289 46.9662 14.6646 46.0499C14.9151 45.4389 15.4268 45.0029 16.0688 44.8535C16.3034 44.7989 16.5007 44.641 16.6053 44.424L18.1833 41.1503C18.2189 41.0762 18.243 40.9971 18.2544 40.9157L18.5635 38.7179C18.6593 38.0372 18.3898 37.3477 17.8605 36.9184C16.668 35.9514 15.6612 34.7975 14.8678 33.4885C14.5203 32.9151 13.8838 32.5548 13.2065 32.5485L11.0125 32.5276C10.9288 32.5265 10.8458 32.5391 10.7662 32.5642L8.36407 33.3198C8.06373 33.4144 7.8473 33.677 7.81208 33.9899C7.67395 35.2175 6.82416 36.25 5.64709 36.6202C4.0238 37.1309 2.27266 36.2306 1.74423 34.6131C1.53417 33.9701 1.54096 33.2877 1.76407 32.6397C1.90708 32.2241 1.6862 31.7713 1.27064 31.6283C0.854975 31.4851 0.402287 31.7063 0.259276 32.1218C-0.0773492 33.0999 -0.0870034 34.1323 0.231481 35.1073C0.877997 37.0862 2.73575 38.3543 4.72177 38.3542C5.18687 38.3542 5.65939 38.2846 6.1246 38.1382C7.73187 37.6322 8.93473 36.3099 9.30488 34.6917L11.1239 34.1194L13.1918 34.1391C13.3223 34.1403 13.4433 34.2069 13.5073 34.3127C14.3959 35.7788 15.5234 37.0712 16.8585 38.154C16.9569 38.2336 17.0065 38.3647 16.9881 38.4958L16.6962 40.5708L15.3252 43.4154C14.3651 43.7552 13.5836 44.4922 13.1926 45.4461C12.5066 47.1194 13.1776 49.05 14.7535 49.9367C15.6311 50.4307 16.642 50.537 17.5994 50.2359C18.5434 49.9391 19.3312 49.2578 19.7607 48.3667C20.1847 47.4871 20.2324 46.4951 19.9051 45.5895L21.2632 42.772L22.5785 41.384C22.7554 41.1973 23.0162 41.1166 23.2767 41.1682C24.2167 41.3542 25.182 41.4486 26.1551 41.4486H26.1558C26.4255 41.4486 26.6683 41.5801 26.8052 41.8004L27.799 43.399L28.3515 45.5916C27.4315 46.7144 27.1416 48.2202 27.5996 49.6264C28.1767 51.3984 29.8696 52.5689 31.6797 52.5688C31.981 52.5688 32.2858 52.5363 32.589 52.4689C33.7269 52.2154 34.6901 51.5302 35.301 50.5392C35.9121 49.5479 36.0919 48.3801 35.8074 47.2512C35.4729 45.9236 34.5173 44.8409 33.2624 44.3326L32.715 42.1603L32.8451 40.0834C32.8548 39.9291 32.9422 39.7898 33.0731 39.72C34.2569 39.0886 35.3511 38.2978 36.3255 37.3695C36.4281 37.2718 36.5636 37.2252 36.6973 37.2414L37.5945 37.3504L38.8879 38.2183C39.1176 39.1512 39.708 39.951 40.5468 40.4488C42.1121 41.3776 44.126 40.9882 45.2314 39.5426C45.8426 38.7434 46.0893 37.7586 45.926 36.7694C45.765 35.794 45.202 34.9187 44.3813 34.3681C43.5327 33.7988 42.4837 33.622 41.5026 33.8675L40.4188 33.1403L39.9519 32.3054C39.8964 32.2061 39.8892 32.0853 39.9321 31.9739C40.3333 30.932 40.6152 29.8423 40.7699 28.7352C40.7888 28.6 40.8691 28.4859 40.9845 28.4302L42.4257 27.7349L43.8407 27.6099C44.8241 29.2377 46.579 30.1488 48.4534 29.9607C48.7993 29.926 49.1436 29.8528 49.4768 29.7432C49.8943 29.6058 50.1212 29.1561 49.9838 28.7386C49.8465 28.3209 49.3966 28.094 48.9793 28.2313Z" fill="#048719"></path> <path d="M28.7021 15.8352C27.8679 15.6392 27.0078 15.5399 26.1457 15.5399C20.0024 15.5399 15.0044 20.5378 15.0044 26.6812C15.0044 32.8246 20.0023 37.8225 26.1457 37.8225C32.2891 37.8225 37.287 32.8246 37.287 26.6812C37.287 22.8401 35.3467 19.3189 32.0969 17.2616C31.7254 17.0265 31.2338 17.137 30.9989 17.5082C30.7638 17.8795 30.8744 18.371 31.2457 18.6061C34.0322 20.37 35.6957 23.3888 35.6957 26.6812C35.6957 31.947 31.4116 36.2312 26.1457 36.2312C20.8798 36.2312 16.5958 31.9471 16.5958 26.6812C16.5958 21.4153 20.8798 17.1313 26.1457 17.1313C26.8855 17.1313 27.6231 17.2165 28.3383 17.3844C28.7662 17.4852 29.1943 17.2195 29.2948 16.7918C29.3953 16.3639 29.1298 15.9357 28.7021 15.8352Z" fill="#048719"></path> <path d="M8.73826 8.66793C10.8016 8.66793 12.4802 6.98936 12.4802 4.926C12.4802 2.86265 10.8016 1.18408 8.73826 1.18408C6.6749 1.18408 4.99634 2.86275 4.99634 4.92611C4.99634 6.98936 6.6749 8.66793 8.73826 8.66793ZM8.73826 2.77555C9.92403 2.77555 10.8888 3.74034 10.8888 4.92611C10.8888 6.11189 9.92403 7.07667 8.73826 7.07667C7.55248 7.07667 6.5877 6.11189 6.5877 4.92611C6.5877 3.74034 7.55248 2.77555 8.73826 2.77555Z" fill="#048719"></path> <path d="M7.93272 41.0203C6.42093 41.0203 5.19092 42.2502 5.19092 43.762C5.19092 45.2737 6.42083 46.5038 7.93272 46.5038C9.44452 46.5038 10.6744 45.2739 10.6744 43.762C10.6744 42.2503 9.44452 41.0203 7.93272 41.0203ZM7.93272 44.9124C7.29841 44.9124 6.78228 44.3964 6.78228 43.762C6.78228 43.1276 7.2983 42.6116 7.93272 42.6116C8.56704 42.6116 9.08307 43.1276 9.08307 43.762C9.08307 44.3964 8.56704 44.9124 7.93272 44.9124Z" fill="#048719"></path> <path d="M43.663 43.2968C41.6438 43.2968 40.001 44.9395 40.001 46.9588C40.001 48.9781 41.6437 50.6208 43.663 50.6208C45.6823 50.6208 47.3251 48.9781 47.3251 46.9588C47.3251 44.9395 45.6822 43.2968 43.663 43.2968ZM43.663 49.0294C42.5213 49.0294 41.5923 48.1005 41.5923 46.9587C41.5923 45.8168 42.5212 44.888 43.663 44.888C44.8049 44.888 45.7337 45.8168 45.7337 46.9587C45.7337 48.1005 44.8048 49.0294 43.663 49.0294Z" fill="#048719"></path> <path d="M26.4382 23.8281C26.4382 21.9158 24.8825 20.3601 22.9702 20.3601C21.0579 20.3601 19.5022 21.9158 19.5022 23.8281C19.5022 25.7404 21.0579 27.2961 22.9702 27.2961C24.8825 27.2961 26.4382 25.7403 26.4382 23.8281ZM22.9702 25.7047C21.9354 25.7047 21.0936 24.8629 21.0936 23.8281C21.0936 22.7933 21.9354 21.9515 22.9702 21.9515C24.005 21.9515 24.8468 22.7933 24.8468 23.8281C24.8468 24.8629 24.005 25.7047 22.9702 25.7047Z" fill="#048719"></path> <path d="M25.1153 34.7429C26.557 34.7429 27.7299 33.5699 27.7299 32.1283C27.7299 30.6866 26.557 29.5137 25.1153 29.5137C23.6737 29.5137 22.5007 30.6866 22.5007 32.1283C22.5007 33.57 23.6736 34.7429 25.1153 34.7429ZM25.1153 31.1051C25.6795 31.1051 26.1386 31.5642 26.1386 32.1284C26.1386 32.6926 25.6795 33.1516 25.1153 33.1516C24.5511 33.1516 24.0921 32.6926 24.0921 32.1284C24.0921 31.5642 24.551 31.1051 25.1153 31.1051Z" fill="#048719"></path> <path d="M28.5037 26.6812C28.5037 27.9622 29.5458 29.0043 30.8267 29.0043C32.1077 29.0043 33.1498 27.9622 33.1498 26.6812C33.1498 25.4003 32.1077 24.3582 30.8267 24.3582C29.5458 24.3582 28.5037 25.4002 28.5037 26.6812ZM30.8267 25.9494C31.2302 25.9494 31.5584 26.2776 31.5584 26.6811C31.5584 27.0846 31.2302 27.4128 30.8267 27.4128C30.4233 27.4128 30.095 27.0846 30.095 26.6811C30.095 26.2776 30.4232 25.9494 30.8267 25.9494Z" fill="#048719"></path> </g> <defs> <clipPath id="clip0"> <rect width="53" height="53" fill="white"></rect> </clipPath> </defs> </svg> 